<svg width="26" height="26" fill="none" xmlns="http://www.w3.org/2000/svg"><circle cx="13" cy="13" r="13" fill="#fff"/><path fill-rule="evenodd" clip-rule="evenodd" d="M13 26C5.82 26 0 20.18 0 13S5.82 0 13 0s13 5.82 13 13-5.82 13-13 13zM9.92 9.558c.421.899.767 1.874 1.525 4.198l.007.02c.765 2.346 1.11 3.327 1.572 4.345.316.7.63 1.251.974 1.673.506.621 1.107 1.006 1.852 1.006.99 0 1.823-.432 2.4-1.206.456-.609.736-1.396.889-2.35.232-1.454.174-3.299-.1-5.544-.31-2.538-.816-4.592-1.531-6.17a1.3 1.3 0 10-2.368 1.075c.593 1.307 1.038 3.114 1.318 5.41.247 2.023.299 3.66.113 4.819-.092.574-.237.982-.402 1.204a.4.4 0 01-.142.131l-.013-.016c-.178-.218-.39-.59-.622-1.104-.407-.897-.736-1.834-1.47-4.08l-.006-.02c-.795-2.438-1.158-3.46-1.642-4.494-.339-.723-.677-1.28-1.058-1.691-.582-.63-1.31-.957-2.13-.77-.869.2-1.482.837-1.85 1.754-.287.713-.446 1.635-.5 2.788-.098 2.145.167 5.19.792 9.166a1.3 1.3 0 102.568-.404c-.6-3.817-.851-6.707-.762-8.642.035-.757.122-1.343.246-1.747.105.175.22.392.34.649z" fill="#63CCE5"/></svg>