<svg width="27" height="26" fill="none" xmlns="http://www.w3.org/2000/svg"><circle cx="13.5" cy="13" r="13" fill="#4FCF9A"/><path d="M18.226 11.317l.582.416c-.275.102-.479.173-.678.252-.45.176-.91.328-1.343.538-.594.289-.994.755-1.145 1.42a2.884 2.884 0 01-.968 1.59c-.226.192-.271.39-.215.648.095.443.227.883.278 1.33.066.574.072 1.154.095 1.733.007.181-.104.255-.286.25a36.403 36.403 0 00-1.096-.002c-.158 0-.256-.048-.203-.227.24-.821-.024-1.579-.293-2.335-.16-.444-.165-.447-.636-.424-.904.046-1.737-.185-2.52-.624-.089-.05-.185-.09-.334-.163-.03.293-.061.534-.08.774-.057.78-.084 1.559.175 2.316.004.01.005.019.008.028.129.613.092.658-.526.66-.266 0-.534.013-.798-.013-.076-.008-.208-.14-.2-.198.117-.853-.086-1.671-.279-2.485-.177-.746-.266-1.493-.211-2.258.003-.048-.006-.095-.01-.15-.18.12-.297.39-.305.805-.006.325.03.649.05.973.015.265.044.531.047.796.006.41-.187.708-.6.95-.058-.356-.118-.676-.156-1-.01-.089.026-.225.089-.27.311-.224.258-.55.275-.858.065-1.145.187-2.281.607-3.361.23-.588.562-1.107 1.07-1.496.386-.293.833-.372 1.307-.407.63-.048 1.036.054 1.33.758.465 1.11 1.43 1.746 2.598 2.045.044.012.093.006.163-.05-.148-.077-.295-.156-.444-.231-.776-.39-1.426-.916-1.805-1.72-.475-1.007-.254-2.027.551-2.593a1.93 1.93 0 012.34.079c.18.145.309.142.497.041.624-.332 1.262-.32 1.912-.06a.46.46 0 00.361-.025c1.224-.763 1.423-2.674.39-3.728-.177-.18-.392-.326-.599-.473-.125-.09-.286-.157-.125-.333.123-.133.121-.47.46-.277.886.504 1.554 1.205 1.952 2.147.752 1.781.257 3.873-1.171 5.061-.042.035-.067.09-.11.15v.001zm-2.404-1.774l-.006.133c.109.086.207.221.329.248.187.04.318-.087.33-.286.013-.205-.119-.33-.304-.308-.124.014-.234.139-.35.213z" fill="#fff"/><path d="M16.1 17.25c-.292-.245-.558-.46-.814-.684-.537-.47-.534-.47-.056-.989.107-.115.198-.244.293-.37.09-.118.172-.239.263-.365.021.004.064-.002.075.013.451.618.935 1.217 1.337 1.865.284.458.197.97-.158 1.377-.262.3-.578.561-.894.807-.082.063-.318.06-.38-.007a2.733 2.733 0 01-.493-.713c-.048-.105.04-.33.137-.428.184-.184.42-.315.69-.506zm-6.289-.936c.439.175.849.331 1.252.507.059.025.117.138.113.207-.035.702.127 1.365.352 2.023.14.414.095.448-.35.446-.306 0-.611-.006-.918-.005-.158 0-.235-.057-.228-.228.037-.92.009-1.834-.233-2.731-.015-.059.006-.126.012-.219z" fill="#fff"/></svg>