<svg width="26" height="27" fill="none" xmlns="http://www.w3.org/2000/svg"><path d="M14.487 17.441c-.242-.401-.462-.667-.575-.972-.776-2.082-1.515-4.177-2.296-6.257A100.607 100.607 0 009.887 5.88c-.203-.473-.53-.916-.881-1.3-1.185-1.3-2.956-1.063-3.781.491-.645 1.216-.756 2.557-.784 3.893-.096 4.474.455 8.885 1.383 13.253.305 1.44.655 2.87.982 4.3-2.883 1.27-5.624-.032-6.227-3.12-.367-1.873-.48-3.813-.526-5.726-.077-3.197-.07-6.399.023-9.596.047-1.607.219-3.24.593-4.8C1.292.672 3.327-.457 5.947.169c2.15.514 4.064 1.583 5.999 2.601.269.141.52.324.803.427.906.33 1.304.985 1.518 1.907.736 3.172 1.194 6.365.99 9.625-.042.659-.22 1.312-.37 1.958-.052.22-.213.411-.4.754z" fill="#32A6C1"/><path d="M9.245 25.62c-.382-1.739-.76-3.347-1.087-4.966a56.393 56.393 0 01-1.14-10.97c-.003-.647.053-1.295.124-1.938.02-.195.179-.376.274-.563.158.154.395.28.463.468.735 2.01 1.42 4.04 2.165 6.046.526 1.419 1.114 2.814 1.695 4.212.123.294.323.56.508.824 1.395 1.98 3.581 1.32 4.532-.07.699-1.018.935-2.183 1.046-3.38.286-3.072-.092-6.1-.664-9.11-.029-.153-.042-.309-.083-.621 1.738 1.044 3.39 1.981 4.98 3.014.927.603 1.835 1.281 2.61 2.064 1.79 1.809 1.769 3.923-.016 5.741a12.349 12.349 0 01-2.06 1.694c-4.246 2.761-8.733 5.103-13.346 7.554v.002z" fill="#32A6C1"/></svg>