<svg width="26" height="26" fill="none" xmlns="http://www.w3.org/2000/svg"><path fill-rule="evenodd" clip-rule="evenodd" d="M21.978 21.075l1.36-5.093a.645.645 0 00-1.246-.333l-.745 2.792.63 2.634zm-2.368-4.362l-.29-1.067a.644.644 0 10-1.244.34l1.458 5.35a1.638 1.638 0 00-.545-.103c-.633 0-1.23.235-1.655.682a2.28 2.28 0 00-.648 1.593c0 .697.285 1.302.759 1.713a12.98 12.98 0 01-4.444.779C5.821 26 0 20.18 0 13S5.82 0 13 0s13 5.82 13 13c0 3.568-1.438 6.8-3.765 9.15l.39 1.625c.181.47.596.76 1.029.72.557-.053.915-.438.915-.984a.993.993 0 00-.293-.705c-.17-.18-.427-.281-.719-.281a.644.644 0 010-1.29c.632 0 1.228.235 1.651.682.422.444.648.995.648 1.594 0 1.218-.87 2.153-2.082 2.267-1.056.1-2.006-.577-2.37-1.596l-.013-.033-1.781-7.435zm-.63 8.207c-.71 0-1.286-.582-1.286-1.3 0-.719.576-1.301 1.287-1.301.71 0 1.286.582 1.286 1.3 0 .72-.576 1.301-1.286 1.301zM8.405 9.557c.42.899.767 1.875 1.525 4.199l.007.019c.766 2.347 1.11 3.327 1.572 4.346.317.7.631 1.25.974 1.672.506.622 1.108 1.006 1.852 1.006a2.91 2.91 0 002.401-1.206c.456-.61.736-1.396.888-2.35.232-1.453.174-3.299-.1-5.544-.31-2.539-.814-4.592-1.53-6.17a1.301 1.301 0 00-2.369 1.074c.593 1.307 1.037 3.114 1.318 5.41.247 2.024.3 3.66.113 4.82-.091.574-.236.982-.403 1.204a.4.4 0 01-.141.131l-.013-.015c-.178-.219-.39-.591-.623-1.105-.406-.897-.736-1.834-1.469-4.08l-.006-.018c-.796-2.438-1.159-3.461-1.643-4.495-.339-.722-.677-1.28-1.058-1.692-.583-.63-1.31-.956-2.13-.769-.869.2-1.483.837-1.852 1.754-.287.713-.445 1.636-.498 2.788-.1 2.145.167 5.19.79 9.166a1.3 1.3 0 002.569-.403c-.6-3.817-.852-6.708-.762-8.643.035-.757.122-1.343.246-1.747.106.175.22.392.34.649l.002-.001z" fill="#32A6C1"/></svg>