<svg width="199" height="26" fill="none" xmlns="http://www.w3.org/2000/svg"><path d="M17.428 4.381l-.116-.344c-.554 0-1.37.344-1.895.774-1.544 3.035-3.03 6.414-3.934 9.506-.03.086-.233.115-.292.057-.553-.744-1.486-2.262-2.36-3.865C7.665 8.36 6.674 6.013 6.587 4.782c-.233-.172-.612-.2-1.05-.258-.582.2-.903.401-1.253.802.03.601-.204 1.833-.466 2.377C1.458 12.97.408 15.663 0 17.753c.233.344.525.544.758.688.437-.115 1.049-.373 1.224-.602.175-2.32 1.107-5.612 3.118-9.592.03-.058.146-.115.204-.115.03 0 .146.057.204.172.758 1.575 1.632 3.35 2.565 4.954 1.137 1.918 2.332 3.75 3.468 5.068a2.52 2.52 0 001.195-.515c.117-.23.262-.516.32-.745a5.245 5.245 0 01-.232-1.403 9.3 9.3 0 01.379-1.976c1.078-3.321 2.39-6.357 4.225-9.306zm2.854 4.352c-1.341.83-4.605 4.324-4.605 7.417 0 1.231.583 2.062 1.632 2.062 2.623 0 6.557-4.782 6.557-8.247 0-1.031-.408-1.49-.903-1.661-.35 0-1.078.4-1.603.916-.35-.343-.729-.487-1.078-.487zm.728.716c.612.172 1.05.716 1.05 1.547 0 2.233-2.186 5.469-3.352 5.469-.641 0-1.05-.2-1.05-1.375 0-1.832 1.516-4.467 3.352-5.64zm13.405.144c.466 0 .554.544.874.715.292 0 .904-.286 1.253-.486.117-.2.175-.43.234-.774-.146-.343-.263-.515-.583-.859a6.52 6.52 0 00-1.079-.143c-3.002 1.575-6.178 5.727-6.178 8.39 0 1.46.787 1.947 1.66 1.947 1.633 0 3.586-1.575 5.538-3.75 0-.373-.175-.717-.35-.86-1.806 2.005-3.001 2.864-3.846 2.864-.525 0-.991-.43-.991-1.031 0-.83.437-2.148 1.136-3.236.67-1.06 1.662-2.233 2.332-2.777zm10.049.057c.262.315.553.487.787.572.29 0 .816-.229 1.136-.458.175-.315.262-.973.262-1.288-.35-.315-.932-.573-1.311-.687-.816 0-2.769 1.804-5.159 4.867-.058.058-.32.029-.233-.143.38-1.174.554-2.176.554-2.72 0-.487 0-.745-.146-1.174-1.02-.029-1.603.372-2.07 1.06.147.257.292.83.292 1.632-.029 1.059-1.049 3.922-2.185 6.528.233.172.582.344.961.373.35-.144.875-.344 1.108-.545.35-.859.99-1.975 1.166-2.262 2.331-3.722 4.226-5.555 4.838-5.755zm5.616-1.346c-2.447 1.947-4.691 5.727-4.691 8.304 0 1.088.582 1.66 1.69 1.66 1.428 0 4.138-1.631 5.392-2.69 0-.46-.03-.745-.263-1.032-1.049.888-2.798 2.177-3.963 2.177-.642 0-.7-.63-.7-1.29 0-.858.233-1.803.729-2.92 3.147 0 5.625-1.489 5.566-3.12-.058-1.032-1.165-1.318-2.448-1.318-.437 0-.99.143-1.311.229zm.555.744c.845 0 1.37.23 1.37.802 0 1.174-1.72 1.69-3.294 1.69a10.445 10.445 0 011.924-2.492zm9.248.745c.378 0 .961.487 1.165 1.002-1.107 1.861-4.138 4.81-4.983 4.81-.233 0-.35-.142-.35-.63 0-1.918 3.206-5.182 4.168-5.182zm1.165 3.236c-.553 1.69-.874 3.293-.874 4.467 0 .716.146 1.517.495 1.775.467 0 1.4-.544 1.778-.888.088-.229.088-.515.088-.802-.204-.057-.35-.4-.38-.916-.087-1.517.38-3.207.904-4.696 1.545-4.324 3.585-8.905 4.75-10.766.06-.373-.116-.888-.32-1.203-.495 0-1.253.258-1.836.573 0 .2-.029.4-.087.572-.845 2.463-2.303 6.014-3.381 8.533-.525-.6-1.224-1.145-1.749-1.145-1.748 0-6.994 4.41-6.994 8.16 0 .86.379 1.232.874 1.232 1.282 0 3.876-2.176 6.5-5.04.057-.057.29 0 .232.144zM70.87 2.72c-1.078.058-1.807 1.49-1.778 1.661 0 .286.35.86.962 1.117 1.166-.43 1.574-1.518 1.574-1.804 0-.115-.35-.745-.758-.974zm-5.333 15.291c.495 0 1.807-.544 3.643-1.918 0-.23-.146-.63-.263-.83-.64.543-1.486 1.001-1.806 1.001-.234 0-.38-.257-.38-.744 0-.916.438-2.491 2.245-5.87-.117-.344-.467-.716-.7-.773-.466.086-1.165.43-1.544.744.087.372 0 .802-.059 1.002-1.136 2.892-1.865 4.954-1.865 6.185 0 .945.291 1.203.729 1.203zm9.547-14.088c.088.43-1.136 3.35-1.894 4.982-.816.172-1.516.258-2.157.43-.117.086-.437.601-.437.859.525 0 1.428-.029 2.04-.029-1.428 3.207-2.186 5.698-2.186 6.787 0 .744.35 1.23.787 1.23.933 0 3.06-1.316 4.896-2.605 0-.4-.087-.687-.262-.973-1.399 1.059-2.506 1.66-3.06 1.689-.204 0-.292-.172-.292-.63 0-.83.496-2.377 1.866-5.641 1.224-.115 2.419-.286 3.468-.544.204-.2.466-.687.466-.86-1.049.087-2.565.115-3.351.115.7-1.517 1.748-3.693 2.535-4.953-.087-.23-.408-.516-.7-.687-.611.143-1.31.486-1.719.83zm12.269 5.67c.466 0 .554.544.875.715.29 0 .903-.286 1.253-.486.116-.2.175-.43.233-.774-.146-.343-.263-.515-.583-.859a6.52 6.52 0 00-1.078-.143c-3.002 1.575-6.179 5.727-6.179 8.39 0 1.46.787 1.947 1.661 1.947 1.632 0 3.585-1.575 5.538-3.75 0-.373-.175-.717-.35-.86-1.807 2.005-3.002 2.864-3.847 2.864-.525 0-.991-.43-.991-1.031 0-.83.437-2.148 1.137-3.236.67-1.06 1.66-2.233 2.331-2.777zm9.2-1.146c-.612 0-1.632.516-2.42 1.06-3.293 2.319-4.72 5.383-4.72 7.502 0 .744.349 1.088.67 1.088 1.34 0 3.439-1.632 5.333-3.665.117-.143.291-.029.262.057-.408 1.002-.641 2.491-.612 2.978 0 .63.32.916.554.916.816 0 2.71-1.26 3.497-1.918-.029-.258-.116-.602-.233-.802-.525.43-1.224.83-1.515.83-.204 0-.35-.229-.35-.63 0-1.803 1.457-5.01 2.39-6.986-.233-.258-.496-.287-.758-.401-.32.172-.641.343-.933.515-.408-.258-.874-.544-1.165-.544zM95.91 9.65c.233 0 .816.487.991.83-1.807 3.55-4.08 5.498-5.013 5.498-.204 0-.233-.2-.233-.487 0-2.434 3.148-5.841 4.255-5.841zm11.937 0c.262.315.554.487.787.572.292 0 .816-.229 1.137-.458.175-.315.262-.973.262-1.288-.35-.315-.933-.573-1.311-.687-.817 0-2.769 1.804-5.159 4.867-.058.058-.321.029-.233-.143.379-1.174.554-2.176.554-2.72 0-.487 0-.745-.146-1.174-1.02-.029-1.603.372-2.069 1.06.145.257.291.83.291 1.632-.029 1.059-1.049 3.922-2.186 6.528.233.172.583.344.962.373.35-.144.874-.344 1.107-.545.35-.859.991-1.975 1.166-2.262 2.332-3.722 4.226-5.555 4.838-5.755zm6.738.143c.379 0 .962.487 1.166 1.002-1.107 1.861-4.138 4.81-4.983 4.81-.234 0-.35-.142-.35-.63 0-1.918 3.206-5.182 4.167-5.182zm1.166 3.236c-.553 1.69-.874 3.293-.874 4.467 0 .716.146 1.517.495 1.775.467 0 1.399-.544 1.778-.888.088-.229.088-.515.088-.802-.204-.057-.35-.4-.379-.916-.088-1.517.379-3.207.903-4.696 1.545-4.324 3.585-8.905 4.751-10.766.058-.373-.117-.888-.321-1.203-.495 0-1.253.258-1.836.573 0 .2-.029.4-.087.572-.846 2.463-2.303 6.014-3.381 8.533-.525-.6-1.224-1.145-1.749-1.145-1.748 0-6.994 4.41-6.994 8.16 0 .86.378 1.232.874 1.232 1.282 0 3.876-2.176 6.499-5.04.058-.057.292 0 .233.144zm16.402-3.379c.263.315.554.487.787.572.292 0 .816-.229 1.137-.458.175-.315.262-.973.262-1.288-.35-.315-.933-.573-1.311-.687-.816 0-2.769 1.804-5.159 4.867-.058.058-.321.029-.233-.143.379-1.174.554-2.176.554-2.72 0-.487 0-.745-.146-1.174-1.02-.029-1.603.372-2.069 1.06.145.257.291.83.291 1.632-.029 1.059-1.049 3.922-2.186 6.528.233.172.583.344.962.373.35-.144.874-.344 1.107-.545.35-.859.991-1.975 1.166-2.262 2.332-3.722 4.226-5.555 4.838-5.755zm5.617-1.346c-2.448 1.947-4.692 5.727-4.692 8.304 0 1.088.583 1.66 1.69 1.66 1.429 0 4.139-1.631 5.392-2.69 0-.46-.029-.745-.262-1.032-1.049.888-2.798 2.177-3.964 2.177-.641 0-.699-.63-.699-1.29 0-.858.233-1.803.728-2.92 3.148 0 5.625-1.489 5.567-3.12-.058-1.032-1.166-1.318-2.448-1.318-.437 0-.991.143-1.312.229zm.554.744c.845 0 1.37.23 1.37.802 0 1.174-1.72 1.69-3.293 1.69a10.419 10.419 0 011.923-2.492zm8.432.716c.525 0 1.079.544 1.399.917-.991 1.832-4.022 4.782-4.634 4.782-.233 0-.291-.115-.291-.344 0-1.861 2.739-5.355 3.526-5.355zm.612 4.01c-2.04 4.38-3.351 8.618-4.051 11.51.146.287.554.602.904.716.32 0 1.136-.286 1.486-.687-.262-.773.146-3.035.495-4.21 1.283-4.495 3.585-9.535 5.13-11.997-.146-.172-.466-.516-.816-.516-.379.23-.758.573-1.166 1.003-.699-.545-1.574-1.003-2.04-1.003-1.69 0-6.237 4.467-6.237 7.96 0 .745.321 1.031.758 1.031 1.224 0 3.206-1.746 5.275-3.865.087-.115.321-.029.262.057zm6.156-4.153c-1.137 2.176-2.448 5.297-2.448 7.016 0 .715.35 1.088.845 1.088 1.02 0 3.089-1.518 5.975-4.84.058-.028.32-.057.262.115-.466 1.26-.845 2.692-.845 3.665 0 .802.35 1.088.699 1.088.875 0 2.798-1.231 3.702-2.09 0-.344-.059-.573-.204-.83-.875.658-1.545 1.03-1.982 1.03-.175 0-.262-.2-.262-.515-.03-.888.816-3.722 2.011-5.927-.088-.172-.438-.458-.642-.544-.349 0-1.078.286-1.573.63-2.623 4.037-4.897 6.013-5.538 6.013-.204 0-.262-.287-.262-.544 0-1.117.554-2.72 2.069-5.298-.116-.2-.321-.4-.495-.544-.438.115-.816.2-1.312.487zm15.253-6.901c-1.078.058-1.807 1.49-1.777 1.661 0 .286.349.86.961 1.117 1.166-.43 1.574-1.518 1.574-1.804 0-.115-.35-.745-.758-.974zm-5.333 15.291c.495 0 1.807-.544 3.643-1.918 0-.23-.146-.63-.262-.83-.641.543-1.487 1.001-1.807 1.001-.233 0-.379-.257-.379-.744 0-.916.437-2.491 2.244-5.87-.117-.344-.466-.716-.699-.773-.467.086-1.166.43-1.545.744.087.372 0 .802-.058 1.002-1.137 2.892-1.866 4.954-1.866 6.185 0 .945.292 1.203.729 1.203zm12.198-8.361c.263.315.554.487.787.572.292 0 .816-.229 1.137-.458.175-.315.262-.973.262-1.288-.35-.315-.932-.573-1.311-.687-.816 0-2.769 1.804-5.159 4.867-.058.058-.321.029-.233-.143.379-1.174.554-2.176.554-2.72 0-.487 0-.745-.146-1.174-1.02-.029-1.603.372-2.069 1.06.145.257.291.83.291 1.632-.029 1.059-1.049 3.922-2.186 6.528.233.172.583.344.962.373.35-.144.874-.344 1.108-.545.349-.859.99-1.975 1.165-2.262 2.332-3.722 4.226-5.555 4.838-5.755zm5.617-1.346c-2.448 1.947-4.692 5.727-4.692 8.304 0 1.088.583 1.66 1.691 1.66 1.428 0 4.138-1.631 5.391-2.69 0-.46-.029-.745-.262-1.032-1.049.888-2.798 2.177-3.964 2.177-.641 0-.699-.63-.699-1.29 0-.858.233-1.803.728-2.92 3.148 0 5.625-1.489 5.567-3.12-.058-1.032-1.166-1.318-2.448-1.318-.437 0-.991.143-1.312.229zm.554.744c.845 0 1.37.23 1.37.802 0 1.174-1.72 1.69-3.293 1.69a10.444 10.444 0 011.923-2.492zm9.248.745c.379 0 .962.487 1.166 1.002-1.107 1.861-4.138 4.81-4.984 4.81-.233 0-.349-.142-.349-.63 0-1.918 3.206-5.182 4.167-5.182zm1.166 3.236c-.554 1.69-.874 3.293-.874 4.467 0 .716.146 1.517.495 1.775.467 0 1.399-.544 1.778-.888.087-.229.087-.515.087-.802-.204-.057-.349-.4-.378-.916-.088-1.517.378-3.207.903-4.696 1.545-4.324 3.585-8.905 4.751-10.766.058-.373-.117-.888-.321-1.203-.495 0-1.253.258-1.836.573 0 .2-.029.4-.087.572-.846 2.463-2.303 6.014-3.381 8.533-.525-.6-1.224-1.145-1.749-1.145-1.749 0-6.995 4.41-6.995 8.16 0 .86.379 1.232.875 1.232 1.282 0 3.876-2.176 6.499-5.04.058-.057.291 0 .233.144z" fill="#000"/></svg>