<svg width="992" height="992" fill="none" xmlns="http://www.w3.org/2000/svg"><path d="M793.937 100.329l-4.32-14.019-11.081 14.515 15.401-.496z" fill="#030303"/><path fill-rule="evenodd" clip-rule="evenodd" d="M790.144 83.356a3 3 0 012.34 2.07l4.321 14.019a3.002 3.002 0 01-2.771 3.882l-15.401.496a3 3 0 01-2.481-4.819l11.08-14.515a3.001 3.001 0 012.912-1.133zm-.527 2.954l-11.081 14.515 15.402-.496-4.321-14.02z" fill="#000"/><path d="M944.299 288l-2.834 14.393 16.634-7.535-13.8-6.858z" fill="#030303"/><path fill-rule="evenodd" clip-rule="evenodd" d="M939.602 304.744a2.998 2.998 0 01-1.08-2.931l2.834-14.393a2.999 2.999 0 014.279-2.107l13.799 6.858a3.001 3.001 0 01-.097 5.42l-16.634 7.535a3.001 3.001 0 01-3.101-.382zm1.863-2.351l16.634-7.535L944.3 288l-2.835 14.393z" fill="#000"/><path fill-rule="evenodd" clip-rule="evenodd" d="M496 2c-2.033 0-4.063.012-6.09.037l-.024-2a506.113 506.113 0 0112.319.001l-.025 2A504.288 504.288 0 00496 2zm-18.216.33a499.96 499.96 0 00-12.103.585L465.56.92a502.99 502.99 0 0112.152-.588l.072 1.999zm49.069.618a499.927 499.927 0 00-12.33-.607l.073-1.999c4.14.153 8.267.356 12.38.61l-.123 1.996zm-73.274.848c-4.033.343-8.052.734-12.056 1.174l-.219-1.988c4.021-.442 8.057-.835 12.106-1.179l.169 1.993zm97.879 1.282a496.227 496.227 0 00-12.29-1.218l.173-1.993c4.127.358 8.241.766 12.339 1.223l-.222 1.988zM429.476 6.441c-4.01.54-8.005 1.127-11.983 1.763l-.316-1.975a495.554 495.554 0 0112.032-1.77l.267 1.982zm146.445 1.99a494.295 494.295 0 00-12.21-1.829l.272-1.981c4.103.562 8.189 1.174 12.259 1.837l-.321 1.974zm-170.389 1.834a493.95 493.95 0 00-11.882 2.35l-.412-1.956a492.733 492.733 0 0111.93-2.36l.364 1.966zm194.654 2.741a491.31 491.31 0 00-12.106-2.44l.371-1.965c4.069.767 8.121 1.584 12.155 2.45l-.42 1.955zm-218.381 2.259c-3.935.931-7.853 1.91-11.751 2.934l-.509-1.934a492.288 492.288 0 0111.8-2.947l.46 1.947zm242.387 3.53a489.994 489.994 0 00-11.966-3.045l.469-1.944c4.024.97 8.029 1.99 12.015 3.057l-.518 1.932zM358.355 21.43a489.934 489.934 0 00-11.593 3.513l-.604-1.907a492.579 492.579 0 0111.641-3.527l.556 1.921zm289.518 4.355a490.324 490.324 0 00-11.797-3.644l.566-1.919a492.507 492.507 0 0111.845 3.66l-.614 1.903zm-312.635 2.962a491.988 491.988 0 00-11.407 4.083l-.697-1.875a490.861 490.861 0 0111.454-4.099l.65 1.891zm335.937 5.212a490.831 490.831 0 00-11.599-4.234l.662-1.887a492.662 492.662 0 0111.647 4.251l-.71 1.87zm-358.663 3.24a489.298 489.298 0 00-11.193 4.642l-.789-1.838a493.314 493.314 0 0111.238-4.66l.744 1.856zm381.522 6.096a491.765 491.765 0 00-11.371-4.812l.756-1.852a492.143 492.143 0 0111.417 4.831l-.802 1.832zM290.23 46.763a491.551 491.551 0 00-10.952 5.19l-.879-1.797a494.246 494.246 0 0110.997-5.21l.834 1.818zm426.167 7.005a492.825 492.825 0 00-11.116-5.377l.849-1.811a493.804 493.804 0 0111.16 5.399l-.893 1.79zm-447.95 3.647a493.623 493.623 0 00-10.685 5.723l-.966-1.751a495.848 495.848 0 0110.728-5.746l.923 1.774zm469.757 7.935a492.177 492.177 0 00-10.831-5.928l.938-1.766a494.5 494.5 0 0110.875 5.951l-.982 1.743zm-490.99 3.776a494.524 494.524 0 00-10.391 6.242l-1.051-1.702a493.9 493.9 0 0110.434-6.267l1.008 1.727zm512.193 8.883a496.193 496.193 0 00-10.522-6.462l1.025-1.717a494.301 494.301 0 0110.564 6.488l-1.067 1.691zm-532.825 3.857a495.745 495.745 0 00-10.074 6.745l-1.133-1.649a498.102 498.102 0 0110.115-6.771l1.092 1.675zm553.367 9.844a492.542 492.542 0 00-10.186-6.978l1.11-1.664c3.44 2.294 6.849 4.63 10.227 7.007l-1.151 1.635zm-573.35 3.892a492.008 492.008 0 00-9.732 7.23l-1.213-1.591a499.015 499.015 0 019.772-7.26l1.173 1.62zm588.295 7.048a502.444 502.444 0 00-4.935-3.708l1.191-1.607a500.288 500.288 0 014.956 3.723l-1.212 1.592zm-607.582 7.649a497.162 497.162 0 00-9.369 7.697l-1.288-1.53a501.127 501.127 0 019.406-7.728l1.251 1.561zm-18.547 15.621a498.387 498.387 0 00-8.982 8.146l-1.361-1.465a498.538 498.538 0 019.017-8.178l1.326 1.497zm-17.763 16.509a502.2 502.2 0 00-8.574 8.573l-1.431-1.396a499.076 499.076 0 018.608-8.609l1.397 1.432zm-16.936 17.354a498.038 498.038 0 00-8.146 8.982l-1.497-1.325a491.591 491.591 0 018.178-9.018l1.465 1.361zm-16.07 18.161a493.917 493.917 0 00-7.697 9.368l-1.561-1.251a501.127 501.127 0 017.728-9.406l1.53 1.289zm-15.164 18.923a494.982 494.982 0 00-7.23 9.732l-1.62-1.173a494.93 494.93 0 017.259-9.771l1.591 1.212zM88.61 216.508a495.74 495.74 0 00-6.744 10.074l-1.675-1.092a498.03 498.03 0 016.771-10.114l1.648 1.132zm-13.242 20.315a492.037 492.037 0 00-6.242 10.392l-1.727-1.009a494.323 494.323 0 016.267-10.434l1.702 1.051zm-12.23 20.94a493.112 493.112 0 00-5.723 10.684l-1.774-.922a493.508 493.508 0 015.746-10.728l1.75.966zm-11.186 21.515a491.994 491.994 0 00-5.189 10.952l-1.817-.834a493.39 493.39 0 015.21-10.996l1.796.878zm897.004 14.313a500.549 500.549 0 012.334 5.3l-1.835.795a487.488 487.488 0 00-2.325-5.277l1.826-.818zm-907.115 7.728a491.179 491.179 0 00-4.642 11.193l-1.857-.743a491.505 491.505 0 014.66-11.239l1.839.789zm913.93 8.251a489.723 489.723 0 014.23 10.782l-1.871.708a487.664 487.664 0 00-4.212-10.738l1.853-.752zM32.83 323.832a488.675 488.675 0 00-4.083 11.407l-1.89-.651a494.643 494.643 0 014.098-11.454l1.875.698zm931.145 7.398a490.78 490.78 0 013.718 10.97l-1.902.619a495.382 495.382 0 00-3.702-10.925l1.886-.664zM24.942 346.762a488.128 488.128 0 00-3.512 11.594l-1.921-.557c1.129-3.9 2.305-7.781 3.527-11.641l1.906.604zm946.209 6.492a487.894 487.894 0 013.197 11.131l-1.928.529a495.85 495.85 0 00-3.184-11.086l1.915-.574zm-952.952 16.8a490.668 490.668 0 00-2.935 11.752l-1.946-.461a491.02 491.02 0 012.947-11.799l1.934.508zm959.084 5.534c.932 3.74 1.823 7.497 2.67 11.27l-1.951.438a491.068 491.068 0 00-2.66-11.224l1.941-.484zM12.616 393.65a491.986 491.986 0 00-2.35 11.882l-1.968-.364a493.69 493.69 0 012.36-11.93l1.958.412zm969.742 4.538a500.954 500.954 0 012.138 11.383l-1.97.346a492.516 492.516 0 00-2.13-11.337l1.962-.392zM8.204 417.493a493.39 493.39 0 00-1.763 11.983l-1.982-.267a495.423 495.423 0 011.77-12.031l1.975.315zM986.366 421a491.098 491.098 0 011.603 11.469l-1.984.254a492.608 492.608 0 00-1.596-11.424l1.977-.299zM4.97 441.523c-.44 4.005-.831 8.024-1.174 12.057l-1.993-.17c.344-4.049.737-8.084 1.178-12.105l1.989.218zm984.334 2.451a502.91 502.91 0 011.067 11.534l-1.994.161c-.31-3.842-.664-7.671-1.062-11.487l1.989-.208zM2.915 465.682a499.764 499.764 0 00-.585 12.103l-2-.073c.148-4.063.344-8.114.589-12.151l1.996.121zm988.255 1.378c.221 3.845.398 7.701.531 11.569l-1.998.069a503.97 503.97 0 00-.53-11.523l1.997-.115zM2.037 489.911a504.008 504.008 0 000 12.255l-2 .024a506.093 506.093 0 010-12.304l2 .025zm989.93.297a507.663 507.663 0 01-.004 11.906l-2-.024a493.82 493.82 0 00.004-11.859l2-.023zm-.298 24.08a497.92 497.92 0 01-.588 12.152l-1.996-.121c.243-4.022.439-8.056.585-12.103l1.999.072zm-989.33.206c.152 4.118.354 8.224.606 12.316l-1.996.123a501.98 501.98 0 01-.608-12.366l1.999-.073zm987.858 24.096a491.927 491.927 0 01-1.179 12.106l-1.988-.219c.44-4.004.831-8.023 1.174-12.056l1.993.169zm-986.342.517a499.5 499.5 0 001.214 12.271l-1.987.222a498.216 498.216 0 01-1.22-12.32l1.993-.173zm983.686 23.684a495.554 495.554 0 01-1.77 12.032l-1.975-.316a490.809 490.809 0 001.763-11.983l1.982.267zm-980.952.824a493.544 493.544 0 001.824 12.195l-1.974.32a494.804 494.804 0 01-1.832-12.244l1.982-.271zM983.7 586.832a493.068 493.068 0 01-2.36 11.93l-1.957-.412a489.113 489.113 0 002.351-11.882l1.966.364zm-973.158 1.123a492.154 492.154 0 002.433 12.088l-1.956.419a494.082 494.082 0 01-2.443-12.137l1.966-.37zm968.139 22.7a497.108 497.108 0 01-2.947 11.8l-1.934-.509a488.203 488.203 0 002.934-11.751l1.947.46zm-962.97 1.411a489.996 489.996 0 003.036 11.95l-1.932.517a491.718 491.718 0 01-3.05-11.999l1.945-.468zm956.779 22.135a490.238 490.238 0 01-3.527 11.641l-1.907-.603a492.395 492.395 0 003.513-11.594l1.921.556zm-950.406 1.686a489.429 489.429 0 003.634 11.782l-1.904.614a492.142 492.142 0 01-3.649-11.831l1.919-.565zm943.059 21.525a495.505 495.505 0 01-4.099 11.454l-1.875-.697a494.815 494.815 0 004.083-11.407l1.891.65zm-935.496 1.945a490.83 490.83 0 004.222 11.585l-1.87.708a492.582 492.582 0 01-4.24-11.632l1.888-.661zm927.01 20.875a494.238 494.238 0 01-4.661 11.238l-1.838-.788a490.354 490.354 0 004.642-11.194l1.857.744zm-918.276 2.185a490.258 490.258 0 002.364 5.694l-1.842.778c-.803-1.9-1.594-3.805-2.373-5.717l1.851-.755zm908.672 20.187a495.585 495.585 0 01-5.21 10.997l-1.797-.879a496.08 496.08 0 005.19-10.952l1.817.834zm-10.695 21.872a491.925 491.925 0 01-5.746 10.728l-1.751-.966a492.314 492.314 0 005.723-10.685l1.774.923zM924.6 745.794a498.17 498.17 0 01-6.267 10.434l-1.702-1.051c2.122-3.436 4.203-6.9 6.242-10.391l1.727 1.008zm-12.792 20.716a495.993 495.993 0 01-6.771 10.115l-1.648-1.133a496.14 496.14 0 006.744-10.074l1.675 1.092zm-13.791 20.064c-2.38 3.288-4.8 6.545-7.259 9.772l-1.591-1.213a492.003 492.003 0 007.23-9.732l1.62 1.173zm-14.756 19.365a501.127 501.127 0 01-7.728 9.406l-1.53-1.288a497.162 497.162 0 007.697-9.369l1.561 1.251zm-15.685 18.622a498.538 498.538 0 01-8.178 9.017l-1.465-1.361a498.387 498.387 0 008.146-8.982l1.497 1.326zm-16.574 17.834a499.076 499.076 0 01-8.609 8.608l-1.396-1.431a502.2 502.2 0 008.573-8.574l1.432 1.397zm-17.425 17.004a491.591 491.591 0 01-9.018 8.178l-1.325-1.497a501.815 501.815 0 008.982-8.146l1.361 1.465zM178.812 877.34a484.142 484.142 0 01-4.461-3.759l1.298-1.522a467.406 467.406 0 004.443 3.744l-1.28 1.537zm636.533-1.806a501.127 501.127 0 01-9.406 7.728l-1.251-1.561a493.917 493.917 0 009.368-7.697l1.289 1.53zm-618.259 16.312a498.394 498.394 0 01-9.222-7.146l1.244-1.566a498.716 498.716 0 009.185 7.117l-1.207 1.595zm599.259-1.087a491.99 491.99 0 01-9.771 7.259l-1.173-1.62a494.967 494.967 0 009.732-7.23l1.212 1.591zm-580.324 14.722a493.644 493.644 0 01-9.547-6.707l1.168-1.623a492.789 492.789 0 009.509 6.68l-1.13 1.65zm560.603-.443a500.142 500.142 0 01-10.114 6.772l-1.092-1.676a496.14 496.14 0 0010.074-6.744l1.132 1.648zm-541.05 13.173a490.128 490.128 0 01-9.851-6.25l1.091-1.676a493.53 493.53 0 009.811 6.225l-1.051 1.701zm520.654.123a498.17 498.17 0 01-10.434 6.267l-1.008-1.727a492.406 492.406 0 0010.391-6.242l1.051 1.702zm-500.525 11.675a490.392 490.392 0 01-10.134-5.781l1.011-1.725a498.51 498.51 0 0010.094 5.757l-.971 1.749zm479.5.604a487.34 487.34 0 01-10.728 5.746l-.922-1.774a492.241 492.241 0 0010.684-5.723l.966 1.751zm-458.837 10.231a489.857 489.857 0 01-10.395-5.296l.929-1.771a490.64 490.64 0 0010.353 5.275l-.887 1.792zm437.234 1a488.972 488.972 0 01-10.996 5.21l-.834-1.817a491.548 491.548 0 0010.952-5.189l.878 1.796zm-416.081 8.849a493.67 493.67 0 01-10.635-4.8l.844-1.813a489.666 489.666 0 0010.592 4.78l-.801 1.833zm393.951 1.304a492.425 492.425 0 01-11.239 4.661l-.743-1.857a490.278 490.278 0 0011.193-4.642l.789 1.838zm-372.357 7.533a494.796 494.796 0 01-10.849-4.291l.757-1.851a490.855 490.855 0 0010.806 4.273l-.714 1.869zm349.753 1.515a494.177 494.177 0 01-11.454 4.099l-.651-1.891a491.466 491.466 0 0011.407-4.083l.698 1.875zm-327.763 6.289c-3.7-1.215-7.38-2.472-11.041-3.772l.669-1.885a488.726 488.726 0 0010.996 3.757l-.624 1.9zm304.739 1.63a490.238 490.238 0 01-11.641 3.527l-.557-1.921a494.252 494.252 0 0011.594-3.512l.604 1.906zm-282.404 5.124a493.568 493.568 0 01-11.207-3.245l.579-1.914a490.998 490.998 0 0011.161 3.231l-.533 1.928zm259.017 1.647a492.293 492.293 0 01-11.8 2.947l-.461-1.946c3.936-.932 7.853-1.91 11.752-2.935l.509 1.934zm-236.39 4.039a491.586 491.586 0 01-11.347-2.709l.488-1.94c3.75.943 7.517 1.842 11.301 2.699l-.442 1.95zm212.697 1.567c-3.96.834-7.936 1.621-11.93 2.361l-.364-1.967a491.02 491.02 0 0011.882-2.351l.412 1.957zm-189.825 3.043a490.944 490.944 0 01-11.463-2.17l.395-1.96c3.79.764 7.596 1.484 11.416 2.161l-.348 1.969zm165.885 1.387a490.594 490.594 0 01-12.031 1.77l-.267-1.982c4.01-.539 8.004-1.127 11.983-1.763l.315 1.975zM432 987.909a492.183 492.183 0 01-11.552-1.627l.302-1.977c3.821.584 7.656 1.125 11.506 1.62l-.256 1.984zm118.695 1.11c-4.021.441-8.056.834-12.105 1.178l-.17-1.993c4.033-.343 8.052-.734 12.057-1.174l.218 1.989zm-95.491 1.327a498.407 498.407 0 01-11.616-1.082l.209-1.989c3.843.403 7.7.763 11.569 1.078l-.162 1.993zm71.235.735c-4.037.245-8.088.441-12.151.588l-.073-1.999c4.047-.146 8.082-.342 12.103-.585l.121 1.996zm-47.943.616a498.753 498.753 0 01-11.654-.54l.116-1.996c3.857.223 7.727.402 11.607.537l-.069 1.999zm23.618.266a497.722 497.722 0 01-11.955.003l.023-2a489.974 489.974 0 0011.907-.003l.025 2z" fill="#000"/><path fill-rule="evenodd" clip-rule="evenodd" d="M877 287c-55.228 0-100-44.772-100-100S821.772 87 877 87s100 44.772 100 100-44.772 100-100 100zm-23.694-126.481c3.241 6.917 5.9 14.423 11.736 32.298l.047.147c5.892 18.055 8.544 25.597 12.092 33.43 2.436 5.381 4.852 9.623 7.494 12.867 3.892 4.781 8.519 7.739 14.244 7.739 7.614 0 14.025-3.325 18.473-9.275 3.502-4.686 5.652-10.739 6.827-18.078 1.792-11.186 1.339-25.378-.769-42.647-2.383-19.525-6.269-35.319-11.775-47.458-2.281-5.031-8.208-7.259-13.236-4.975-5.028 2.28-7.256 8.208-4.975 13.239 4.561 10.052 7.98 23.952 10.136 41.619 1.9 15.561 2.3 28.15.872 37.064-.708 4.419-1.822 7.558-3.097 9.264-.378.505-.7.822-1.089 1.011l-.103-.125c-1.364-1.678-2.997-4.545-4.786-8.492-3.125-6.9-5.661-14.111-11.3-31.386l-.047-.147c-6.122-18.758-8.908-26.62-12.636-34.578-2.603-5.558-5.206-9.842-8.136-13.008-4.481-4.842-10.078-7.361-16.386-5.917-6.681 1.531-11.4 6.433-14.236 13.486-2.206 5.486-3.425 12.581-3.834 21.45-.761 16.497 1.281 39.925 6.084 70.506.855 5.455 5.972 9.183 11.427 8.328 5.456-.856 9.184-5.975 8.328-11.431-4.611-29.364-6.547-51.597-5.861-66.481.269-5.819.936-10.333 1.892-13.436.808 1.342 1.689 3.011 2.614 4.989v-.003z" fill="#1DB6DA"/><circle cx="102" cy="788" r="100" fill="#4FCF9A"/><path d="M138.359 775.055c1.352.969 2.604 1.865 4.478 3.199-2.12.786-3.683 1.334-5.218 1.937-3.455 1.353-7.001 2.522-10.327 4.14-4.569 2.221-7.649 5.812-8.81 10.93-1.105 4.88-3.655 9.02-7.448 12.227-1.736 1.472-2.083 2.998-1.654 4.981.731 3.409 1.746 6.79 2.139 10.235.511 4.414.557 8.874.731 13.324.055 1.399-.795 1.965-2.203 1.929-2.805-.064-5.62-.037-8.425-.019-1.216 0-1.974-.365-1.563-1.745 1.846-6.315-.183-12.145-2.257-17.958-1.225-3.417-1.27-3.445-4.89-3.262-6.954.347-13.36-1.426-19.383-4.807-.685-.384-1.425-.695-2.568-1.252-.237 2.257-.475 4.112-.612 5.958-.448 6.004-.649 11.99 1.343 17.812.028.073.037.146.055.219.996 4.715.713 5.063-4.039 5.072-2.047 0-4.112.1-6.141-.101-.585-.054-1.6-1.069-1.535-1.517.895-6.561-.667-12.858-2.148-19.118-1.362-5.739-2.047-11.487-1.627-17.372.028-.366-.045-.731-.073-1.152-1.389.923-2.284 2.998-2.348 6.196-.046 2.495.237 4.99.383 7.485.12 2.038.339 4.085.366 6.123.046 3.153-1.444 5.446-4.615 7.301-.448-2.732-.914-5.199-1.206-7.694-.073-.677.2-1.727.685-2.075 2.394-1.718 1.983-4.222 2.12-6.598.494-8.809 1.435-17.546 4.67-25.853 1.764-4.524 4.323-8.517 8.234-11.506 2.96-2.257 6.397-2.86 10.043-3.134 4.844-.366 7.97.42 10.236 5.83 3.573 8.536 11.003 13.434 19.986 15.737.338.091.713.046 1.252-.384-1.142-.594-2.267-1.206-3.418-1.782-5.968-2.997-10.966-7.046-13.882-13.223-3.655-7.75-1.955-15.6 4.24-19.95 5.447-3.829 12.658-3.674 17.995.603 1.389 1.115 2.376 1.097 3.829.32 4.798-2.559 9.705-2.458 14.704-.466.795.32 2.074.247 2.778-.192 9.413-5.867 10.948-20.571 2.998-28.677-1.362-1.389-3.016-2.504-4.606-3.637-.96-.686-2.203-1.207-.96-2.559.941-1.024.932-3.619 3.537-2.129 6.817 3.874 11.953 9.266 15.015 16.513 5.784 13.699 1.973 29.792-9.011 38.931-.32.265-.512.694-.841 1.151l-.009.009zm-18.497-13.644l-.045 1.024c.84.658 1.599 1.7 2.531 1.901 1.444.31 2.449-.667 2.541-2.194.1-1.581-.914-2.54-2.34-2.376-.95.11-1.8 1.07-2.696 1.645h.009z" fill="#fff"/><path d="M122.001 820.693c-2.239-1.882-4.286-3.536-6.26-5.263-4.131-3.61-4.103-3.619-.43-7.604.823-.886 1.527-1.882 2.258-2.851.685-.905 1.325-1.837 2.019-2.806.165.028.494-.018.576.101 3.473 4.752 7.192 9.358 10.29 14.348 2.184 3.518 1.517 7.457-1.215 10.591-2.02 2.312-4.451 4.314-6.882 6.205-.63.485-2.44.467-2.924-.054-1.508-1.627-2.888-3.482-3.793-5.484-.365-.804.311-2.531 1.061-3.289 1.416-1.417 3.235-2.422 5.3-3.894zm-48.371-7.2c3.372 1.343 6.525 2.549 9.632 3.902.448.192.895 1.06.868 1.59-.274 5.401.978 10.5 2.705 15.563 1.079 3.18.731 3.445-2.687 3.427-2.357 0-4.706-.046-7.064-.036-1.215 0-1.81-.439-1.754-1.755.283-7.073.064-14.11-1.792-21.01-.118-.448.046-.969.092-1.681z" fill="#fff"/></svg>