<svg width="26" height="26" viewBox="0 0 26 26" fill="none" xmlns="http://www.w3.org/2000/svg">
<circle cx="13" cy="13" r="13" fill="white"/>
<path fill-rule="evenodd" clip-rule="evenodd" d="M13 26C5.82039 26 0 20.1796 0 13C0 5.82039 5.82039 0 13 0C20.1796 0 26 5.82039 26 13C26 20.1796 20.1796 26 13 26ZM9.91972 9.55753C10.3411 10.4567 10.6867 11.4324 11.4454 13.7562L11.4516 13.7753C12.2175 16.1225 12.5623 17.1029 13.0235 18.1213C13.3402 18.8208 13.6543 19.3722 13.9978 19.7939C14.5037 20.4154 15.1053 20.8 15.8495 20.8C16.8393 20.8 17.6728 20.3678 18.2509 19.5942C18.7063 18.9851 18.9858 18.1982 19.1385 17.2441C19.3714 15.7899 19.3126 13.945 19.0385 11.7C18.7287 9.16175 18.2235 7.10847 17.5077 5.53042C17.2113 4.87644 16.4407 4.58683 15.7871 4.88367C15.1334 5.18014 14.8438 5.95075 15.1403 6.60472C15.7333 7.91158 16.1778 9.71858 16.458 12.0153C16.705 14.0382 16.757 15.6748 16.5714 16.8336C16.4793 17.4081 16.3345 17.8161 16.1688 18.0379C16.1196 18.1036 16.0778 18.1448 16.0272 18.1693C16.0229 18.1643 16.0185 18.1588 16.0138 18.1531C15.8365 17.9349 15.6242 17.5623 15.3916 17.0491C14.9854 16.1521 14.6557 15.2147 13.9226 12.9689L13.9165 12.9498C13.1206 10.5112 12.7584 9.48928 12.2738 8.45469C11.9354 7.73211 11.5971 7.17528 11.2161 6.76361C10.6336 6.13419 9.906 5.80667 9.08592 5.99444C8.21744 6.19342 7.60392 6.83078 7.23522 7.74764C6.9485 8.46083 6.78997 9.38311 6.73689 10.5361C6.63794 12.6808 6.90336 15.7264 7.52772 19.7019C7.63895 20.4111 8.30411 20.8957 9.01333 20.7845C9.72256 20.6733 10.2072 20.0077 10.0959 19.2985C9.4965 15.4812 9.24481 12.5909 9.334 10.656C9.36903 9.8995 9.4557 9.31269 9.57992 8.90933C9.685 9.08375 9.79947 9.30078 9.91972 9.55789V9.55753Z" fill="#63CCE5"/>
</svg>
