<svg width="27" height="26" viewBox="0 0 27 26" fill="none" xmlns="http://www.w3.org/2000/svg">
<circle cx="13.5" cy="13" r="13" fill="#4FCF9A"/>
<path d="M18.2261 11.3171C18.4019 11.443 18.5646 11.5594 18.8082 11.7329C18.5326 11.8351 18.3294 11.9064 18.1298 11.9848C17.6808 12.1606 17.2198 12.3127 16.7874 12.5229C16.1933 12.8116 15.793 13.2785 15.6421 13.9438C15.4984 14.5782 15.1669 15.1164 14.6739 15.5334C14.4481 15.7247 14.403 15.9231 14.4588 16.1809C14.5539 16.624 14.6857 17.0636 14.7368 17.5114C14.8034 18.0853 14.8093 18.665 14.8319 19.2436C14.839 19.4254 14.7285 19.499 14.5456 19.4943C14.1808 19.4859 13.8149 19.4895 13.4502 19.4919C13.2922 19.4919 13.1936 19.4444 13.247 19.265C13.487 18.444 13.2233 17.6861 12.9536 16.9305C12.7944 16.4862 12.7885 16.4826 12.318 16.5064C11.4139 16.5515 10.5811 16.321 9.79821 15.8815C9.70911 15.8316 9.61288 15.7912 9.46438 15.7187C9.43349 16.0122 9.4026 16.2533 9.38478 16.4933C9.32657 17.2738 9.30043 18.052 9.55942 18.8088C9.56299 18.8183 9.56417 18.8278 9.56655 18.8373C9.69604 19.4503 9.65922 19.4954 9.04144 19.4966C8.77533 19.4966 8.50683 19.5097 8.24309 19.4836C8.16706 19.4764 8.03519 19.3446 8.0435 19.2864C8.15993 18.4334 7.95678 17.6148 7.76432 16.801C7.5873 16.0549 7.4982 15.3077 7.55285 14.5426C7.55641 14.4951 7.54691 14.4475 7.54335 14.3929C7.36277 14.5129 7.24634 14.7826 7.23802 15.1984C7.23208 15.5227 7.26891 15.847 7.28792 16.1714C7.30337 16.4363 7.33188 16.7024 7.33544 16.9673C7.34138 17.3772 7.14773 17.6754 6.73549 17.9166C6.67728 17.5613 6.61669 17.2406 6.57867 16.9162C6.56917 16.8283 6.60481 16.6917 6.66777 16.6466C6.97903 16.4232 6.92557 16.0977 6.94339 15.7888C7.00755 14.6436 7.12991 13.5078 7.55047 12.4279C7.77976 11.8398 8.11241 11.3207 8.62088 10.9322C9.0058 10.6387 9.4525 10.5603 9.92652 10.5247C10.5562 10.4772 10.9625 10.5793 11.2571 11.2826C11.7216 12.3923 12.6875 13.029 13.8553 13.3284C13.8993 13.3403 13.948 13.3344 14.0181 13.2785C13.8696 13.2013 13.7234 13.1217 13.5738 13.0469C12.798 12.6572 12.1481 12.1309 11.7691 11.3278C11.2939 10.3203 11.5149 9.29983 12.3204 8.73433C13.0285 8.23655 13.9658 8.25674 14.6596 8.81274C14.8402 8.95768 14.9685 8.9553 15.1574 8.85432C15.7811 8.52167 16.4191 8.53474 17.0689 8.79373C17.1723 8.83531 17.3386 8.82581 17.4301 8.76878C18.6537 8.00607 18.8533 6.09454 17.8198 5.04076C17.6427 4.86018 17.4277 4.71524 17.221 4.56793C17.0962 4.47883 16.9347 4.41111 17.0962 4.23528C17.2186 4.10222 17.2174 3.76482 17.556 3.95847C18.4423 4.46219 19.1099 5.16313 19.5079 6.10523C20.26 7.88608 19.7645 9.97819 18.3365 11.1662C18.295 11.2007 18.27 11.2565 18.2272 11.3159L18.2261 11.3171ZM15.8215 9.54337L15.8156 9.67643C15.9249 9.76197 16.0235 9.8974 16.1446 9.92354C16.3323 9.96393 16.463 9.83681 16.4749 9.63841C16.488 9.43289 16.3561 9.30814 16.1708 9.32953C16.0472 9.34378 15.9367 9.46853 15.8203 9.54337H15.8215Z" fill="white"/>
<path d="M16.0994 17.2502C15.8083 17.0054 15.5422 16.7904 15.2856 16.5659C14.7486 16.0966 14.7522 16.0954 15.2298 15.5774C15.3367 15.4622 15.4282 15.3327 15.5232 15.2068C15.6123 15.0892 15.6955 14.968 15.7857 14.842C15.8071 14.8456 15.8499 14.8397 15.8606 14.8551C16.312 15.4729 16.7956 16.0716 17.1983 16.7203C17.4822 17.1777 17.3955 17.6897 17.0403 18.0972C16.7777 18.3978 16.4617 18.658 16.1457 18.9039C16.0637 18.9669 15.8285 18.9645 15.7656 18.8968C15.5695 18.6853 15.3901 18.4441 15.2725 18.184C15.225 18.0794 15.3129 17.8549 15.4103 17.7563C15.5945 17.5721 15.8309 17.4414 16.0994 17.2502Z" fill="white"/>
<path d="M9.81132 16.314C10.2497 16.4886 10.6596 16.6454 11.0635 16.8213C11.1217 16.8462 11.1799 16.9591 11.1764 17.028C11.1407 17.7301 11.3035 18.393 11.528 19.0512C11.6682 19.4646 11.6231 19.4991 11.1787 19.4967C10.8722 19.4967 10.5669 19.4907 10.2604 19.4919C10.1024 19.4919 10.0252 19.4349 10.0323 19.2638C10.0691 18.3443 10.0406 17.4295 9.79944 16.5326C9.784 16.4743 9.80538 16.4066 9.81132 16.314Z" fill="white"/>
</svg>
