<svg width="46" height="46" viewBox="0 0 46 46" fill="none" xmlns="http://www.w3.org/2000/svg">
<path fill-rule="evenodd" clip-rule="evenodd" d="M23 46C10.2976 46 0 35.7024 0 23C0 10.2976 10.2976 0 23 0C35.7024 0 46 10.2976 46 23C46 35.7024 35.7024 46 23 46ZM17.5503 16.9095C18.2959 18.5003 18.9073 20.2266 20.2496 24.3378L20.2604 24.3717C21.6155 28.5245 22.2257 30.2591 23.0415 32.0607C23.6018 33.2983 24.1577 34.2738 24.7653 35.0201C25.6603 36.1196 26.7247 36.8 28.0415 36.8C29.7927 36.8 31.2672 36.0353 32.2901 34.6668C33.0957 33.5889 33.5902 32.1968 33.8605 30.5089C34.2726 27.9361 34.1684 24.672 33.6835 20.7C33.1353 16.2093 32.2415 12.5765 30.9753 9.78458C30.4507 8.62756 29.0873 8.11517 27.9309 8.64033C26.7746 9.16486 26.2622 10.5282 26.7867 11.6853C27.8358 13.9974 28.6222 17.1944 29.118 21.2578C29.555 24.8368 29.647 27.7323 29.3186 29.7824C29.1557 30.7989 28.8995 31.5209 28.6063 31.9131C28.5194 32.0294 28.4453 32.1023 28.3558 32.1457C28.3481 32.1368 28.3405 32.1272 28.3322 32.1169C28.0185 31.7311 27.6428 31.0717 27.2314 30.1639C26.5126 28.5769 25.9293 26.9183 24.6324 22.9451L24.6215 22.9112C23.2134 18.5968 22.5726 16.7887 21.7152 14.9583C21.1166 13.6799 20.5179 12.6947 19.8439 11.9664C18.8134 10.8528 17.526 10.2733 16.0751 10.6056C14.5386 10.9576 13.4531 12.0852 12.8008 13.7074C12.2935 14.9692 12.013 16.6009 11.9191 18.6409C11.7441 22.4352 12.2136 27.8236 13.3183 34.8571C13.5151 36.1119 14.6919 36.9693 15.9467 36.7725C17.2014 36.5758 18.0588 35.3983 17.8621 34.1435C16.8015 27.3898 16.3562 22.2761 16.514 18.853C16.576 17.5145 16.7293 16.4763 16.9491 15.7627C17.135 16.0713 17.3375 16.4552 17.5503 16.9101V16.9095Z" fill="#32A6C1"/>
</svg>
