<svg width="26" height="26" viewBox="0 0 26 26" fill="none" xmlns="http://www.w3.org/2000/svg">
<path fill-rule="evenodd" clip-rule="evenodd" d="M21.9779 21.0753L23.3379 15.9823C23.4296 15.6386 23.2252 15.2854 22.8814 15.193C22.5377 15.1012 22.1845 15.3056 22.0921 15.6494L21.3467 18.4407L21.9779 21.0753ZM19.6098 16.7132L19.3194 15.6465C19.2256 15.3027 18.8717 15.1005 18.5279 15.1944C18.1841 15.2883 17.9819 15.6422 18.0758 15.9859L19.5339 21.336C19.3397 21.2674 19.1591 21.2327 18.9887 21.2327C18.356 21.2327 17.7587 21.4682 17.3341 21.9152C16.9123 22.3594 16.6855 22.909 16.6855 23.5084C16.6855 24.2053 16.9715 24.8098 17.4446 25.2207C16.0586 25.7248 14.5622 26 13.0014 26C5.82039 25.9993 0 20.1791 0 12.9996C0 5.82023 5.82039 0 13 0C20.1796 0 26 5.82023 26 12.9996C26 16.568 24.5621 19.7999 22.2351 22.1492L22.6243 23.7749C22.8063 24.2458 23.2209 24.5347 23.6535 24.4942C24.2111 24.4415 24.5693 24.0566 24.5693 23.5113C24.5693 23.2477 24.4732 23.0144 24.2761 22.8064C24.1056 22.6266 23.8485 22.5248 23.5574 22.5248C23.2021 22.5248 22.9139 22.2359 22.9139 21.8798C22.9139 21.5238 23.2021 21.2349 23.5574 21.2349C24.1887 21.2349 24.7852 21.4703 25.2084 21.9174C25.6295 22.3615 25.8556 22.9119 25.8556 23.5113C25.8556 24.7289 24.9853 25.6642 23.7741 25.7783C22.7182 25.8779 21.7685 25.2005 21.4031 24.1822L21.3908 24.149L19.6098 16.7139V16.7132ZM18.9807 24.9203C18.2701 24.9203 17.6944 24.3382 17.6944 23.6196C17.6944 22.901 18.2701 22.3189 18.9807 22.3189C19.6914 22.3189 20.267 22.901 20.267 23.6196C20.267 24.3382 19.6914 24.9203 18.9807 24.9203ZM8.40378 9.5569C8.82483 10.456 9.17078 11.4317 9.92911 13.7558L9.93561 13.7746C10.7019 16.1217 11.0464 17.1025 11.5079 18.1208C11.8249 18.8206 12.1391 19.3716 12.4822 19.7934C12.9884 20.4152 13.5901 20.7994 14.3339 20.7994C15.3234 20.7994 16.1576 20.3675 16.7353 19.5933C17.1911 18.9838 17.4706 18.1973 17.6229 17.2433C17.8555 15.7895 17.797 13.9443 17.5233 11.699C17.2134 9.16041 16.7086 7.10719 15.9922 5.52918C15.6953 4.87559 14.9247 4.58598 14.2711 4.88209C13.6175 5.17891 13.3279 5.9495 13.624 6.60309C14.2169 7.91028 14.6611 9.71723 14.9421 12.0138C15.1891 14.0367 15.2411 15.6732 15.0554 16.8324C14.9637 17.4065 14.8186 17.8153 14.6524 18.037C14.6033 18.1027 14.5614 18.1439 14.5109 18.1684C14.5066 18.1634 14.5022 18.1576 14.4979 18.1526C14.3202 17.9344 14.1079 17.5618 13.8753 17.0483C13.4694 16.1513 13.1394 15.2139 12.4063 12.9686L12.3998 12.9498C11.6039 10.5117 11.2414 9.48901 10.7568 8.45482C10.4181 7.73262 10.0801 7.17508 9.69872 6.76342C9.11589 6.13366 8.38861 5.80651 7.56817 5.99428C6.70006 6.19361 6.08617 6.83059 5.71711 7.74778C5.43039 8.4606 5.27222 9.38357 5.21878 10.5362C5.11983 12.6811 5.38561 15.7267 6.00961 19.7017C6.12083 20.4109 6.786 20.8955 7.49522 20.7843C8.20444 20.673 8.68906 20.0079 8.57783 19.2987C7.97839 15.4818 7.72633 12.5909 7.81589 10.6561C7.85056 9.89923 7.93794 9.3128 8.06217 8.90909C8.16761 9.08386 8.28172 9.30052 8.40233 9.55762L8.40378 9.5569Z" fill="#32A6C1"/>
</svg>
