<svg width="26" height="27" viewBox="0 0 26 27" fill="none" xmlns="http://www.w3.org/2000/svg">
<path d="M14.4872 17.441C14.245 17.0399 14.0247 16.7737 13.9115 16.4686C13.1361 14.3875 12.3972 12.2919 11.6157 10.2121C11.0691 8.75705 10.5007 7.30809 9.88716 5.87981C9.68387 5.40695 9.35643 4.96449 9.00585 4.58037C7.82145 3.28093 6.05031 3.51675 5.225 5.07146C4.57985 6.28702 4.46908 7.62779 4.44108 8.96369C4.34492 13.4382 4.89634 17.8495 5.8239 22.217C6.12944 23.6562 6.4788 25.0869 6.80624 26.5177C3.92252 27.7867 1.18244 26.4848 0.578674 23.3973C0.212275 21.5241 0.099069 19.5841 0.0528126 17.6708C-0.0238755 14.4738 -0.0177892 11.272 0.0759408 8.07511C0.123414 6.46814 0.29505 4.83442 0.668753 3.27485C1.292 0.672329 3.32728 -0.456931 5.94685 0.169085C8.09655 0.683269 10.0113 1.75175 11.9456 2.77039C12.2146 2.9114 12.4666 3.09373 12.749 3.19706C13.6546 3.52647 14.0527 4.18166 14.2669 5.10428C15.0034 8.27568 15.4611 11.469 15.2565 14.7291C15.2152 15.3879 15.0374 16.0407 14.8865 16.6874C14.8354 16.9062 14.6735 17.0982 14.4872 17.441Z" fill="#32A6C1"/>
<path d="M9.24526 25.6206C8.86304 23.8811 8.48447 22.2729 8.15824 20.6538C7.42788 17.0339 7.03104 13.3774 7.01765 9.68334C7.01522 9.03666 7.07121 8.38876 7.14182 7.74573C7.16251 7.55124 7.32076 7.37012 7.4157 7.18292C7.57395 7.3373 7.81132 7.46372 7.87948 7.65092C8.6135 9.66146 9.29882 11.6902 10.0438 13.6971C10.5697 15.1157 11.1576 16.5112 11.7395 17.9091C11.8624 18.2032 12.062 18.4694 12.2471 18.7332C13.6421 20.7134 15.8283 20.0521 16.779 18.6639C17.4777 17.6453 17.7138 16.4796 17.8246 15.2822C18.1107 12.2105 17.7333 9.18374 17.1612 6.17279C17.132 6.01963 17.1186 5.86404 17.0784 5.55164C18.8155 6.59581 20.4673 7.53301 22.0571 8.56624C22.9846 9.16916 23.8927 9.84744 24.6681 10.6303C26.4587 12.439 26.4368 14.5529 24.6523 16.3714C24.0327 17.0022 23.334 17.5833 22.5927 18.0647C18.3456 20.8264 13.8587 23.1676 9.24648 25.6194L9.24526 25.6206Z" fill="#32A6C1"/>
</svg>
