<svg width="199" height="26" viewBox="0 0 199 26" fill="none" xmlns="http://www.w3.org/2000/svg">
<path d="M17.4284 4.38106L17.3118 4.03745C16.7581 4.03745 15.942 4.38106 15.4174 4.81057C13.8728 7.84581 12.3864 11.2247 11.4829 14.3172C11.4538 14.4031 11.2498 14.4317 11.1915 14.3745C10.6377 13.63 9.70512 12.1123 8.83078 10.5088C7.665 8.36123 6.67409 6.01322 6.58666 4.78194C6.3535 4.61013 5.97462 4.5815 5.53746 4.52423C4.95457 4.72467 4.63398 4.92511 4.28424 5.32599C4.31339 5.92731 4.08023 7.15859 3.81793 7.70264C1.45722 12.9714 0.408023 15.663 0 17.7533C0.233156 18.0969 0.524601 18.2974 0.757757 18.4405C1.19492 18.326 1.80696 18.0683 1.98183 17.8392C2.15669 15.5198 3.08932 12.2269 5.10029 8.2467C5.12943 8.18943 5.24601 8.13216 5.3043 8.13216C5.33344 8.13216 5.45002 8.18943 5.50831 8.30396C6.26607 9.87885 7.1404 11.6542 8.07303 13.2577C9.20966 15.1762 10.4046 17.0088 11.5412 18.326C12.0075 18.2687 12.4447 18.0396 12.7361 17.8106C12.8527 17.5815 12.9984 17.2952 13.0567 17.0661C12.9402 16.7225 12.8236 16.0925 12.8236 15.663C12.8527 15.1762 12.9984 14.3172 13.2025 13.6872C14.2808 10.3656 15.5923 7.3304 17.4284 4.38106Z" fill="black"/>
<path d="M20.2816 8.73348C18.941 9.56388 15.6768 13.0573 15.6768 16.1498C15.6768 17.3811 16.2597 18.2115 17.3089 18.2115C19.9319 18.2115 23.8664 13.4295 23.8664 9.96476C23.8664 8.93392 23.4584 8.47577 22.9629 8.30396C22.6132 8.30396 21.8846 8.70485 21.36 9.22026C21.0102 8.87665 20.6313 8.73348 20.2816 8.73348ZM21.0102 9.44934C21.6223 9.62115 22.0594 10.1652 22.0594 10.9956C22.0594 13.2291 19.8736 16.4648 18.7078 16.4648C18.0666 16.4648 17.6586 16.2643 17.6586 15.0903C17.6586 13.2577 19.1741 10.6233 21.0102 9.44934Z" fill="black"/>
<path d="M34.4149 9.59251C34.8812 9.59251 34.9686 10.1366 35.2892 10.3084C35.5807 10.3084 36.1927 10.022 36.5424 9.82159C36.659 9.62115 36.7173 9.39207 36.7756 9.04846C36.6299 8.70485 36.5133 8.53304 36.1927 8.18943C35.9595 8.13216 35.3766 8.04626 35.1143 8.04626C32.1125 9.62115 28.9357 13.7731 28.9357 16.4361C28.9357 17.8965 29.7226 18.3833 30.5969 18.3833C32.229 18.3833 34.1817 16.8084 36.1344 14.6322C36.1344 14.2599 35.9595 13.9163 35.7847 13.7731C33.9777 15.7775 32.7828 16.6366 31.9376 16.6366C31.413 16.6366 30.9467 16.2071 30.9467 15.6057C30.9467 14.7753 31.3838 13.4581 32.0833 12.37C32.7536 11.3106 33.7446 10.1366 34.4149 9.59251Z" fill="black"/>
<path d="M44.4636 9.64978C44.7259 9.96476 45.0173 10.1366 45.2505 10.2225C45.5419 10.2225 46.0665 9.99339 46.3871 9.76432C46.562 9.44934 46.6494 8.79075 46.6494 8.47577C46.2997 8.16079 45.7168 7.90308 45.3379 7.78855C44.5219 7.78855 42.5692 9.59251 40.1793 12.6564C40.121 12.7137 39.8587 12.685 39.9462 12.5132C40.3251 11.3392 40.4999 10.337 40.4999 9.79295C40.4999 9.30617 40.4999 9.04846 40.3542 8.61894C39.3341 8.59031 38.7513 8.99119 38.2849 9.67841C38.4307 9.93612 38.5764 10.5088 38.5764 11.3106C38.5472 12.37 37.5272 15.2335 36.3906 17.8392C36.6237 18.011 36.9734 18.1828 37.3523 18.2115C37.7021 18.0683 38.2267 17.8678 38.4598 17.6674C38.8095 16.8084 39.4507 15.6916 39.6256 15.4053C41.9572 11.6828 43.8515 9.85022 44.4636 9.64978Z" fill="black"/>
<path d="M50.0807 8.30396C47.6326 10.2511 45.3885 14.0308 45.3885 16.6079C45.3885 17.696 45.9714 18.2687 47.0788 18.2687C48.5069 18.2687 51.2174 16.6366 52.4706 15.5771C52.4706 15.1189 52.4414 14.8326 52.2083 14.5463C51.1591 15.4339 49.4104 16.7225 48.2446 16.7225C47.6034 16.7225 47.5452 16.0925 47.5452 15.4339C47.5452 14.5749 47.7783 13.63 48.2738 12.5132C51.4214 12.5132 53.8987 11.0242 53.8404 9.39207C53.7821 8.36123 52.6746 8.07489 51.3922 8.07489C50.9551 8.07489 50.4013 8.21806 50.0807 8.30396ZM50.6345 9.04846C51.4797 9.04846 52.0043 9.27753 52.0043 9.85022C52.0043 11.0242 50.2847 11.5396 48.7109 11.5396C49.2938 10.4802 50.0516 9.59251 50.6345 9.04846Z" fill="black"/>
<path d="M59.8826 9.79295C60.2615 9.79295 60.8444 10.2797 61.0484 10.7952C59.9409 12.6564 56.9099 15.6057 56.0647 15.6057C55.8315 15.6057 55.715 15.4626 55.715 14.9758C55.715 13.0573 58.9209 9.79295 59.8826 9.79295ZM61.0484 13.0286C60.4946 14.7181 60.1741 16.3216 60.1741 17.4956C60.1741 18.2115 60.3198 19.0132 60.6695 19.2709C61.1358 19.2709 62.0685 18.7269 62.4473 18.3833C62.5348 18.1542 62.5348 17.8678 62.5348 17.5815C62.3308 17.5242 62.185 17.1806 62.1559 16.6652C62.0685 15.1476 62.5348 13.4582 63.0594 11.9692C64.604 7.64537 66.6441 3.06388 67.8099 1.20264C67.8682 0.830396 67.6933 0.314977 67.4893 0C66.9939 0 66.2361 0.257709 65.6532 0.572686C65.6532 0.773128 65.6241 0.973568 65.5658 1.14537C64.7206 3.60793 63.2634 7.15859 62.185 9.67841C61.6604 9.07709 60.961 8.53304 60.4364 8.53304C58.6877 8.53304 53.4417 12.9427 53.4417 16.6938C53.4417 17.5529 53.8206 17.9251 54.316 17.9251C55.5984 17.9251 58.1922 15.7489 60.8152 12.8855C60.8735 12.8282 61.1067 12.8855 61.0484 13.0286Z" fill="black"/>
<path d="M70.8701 2.72026C69.7917 2.77753 69.0631 4.20925 69.0923 4.38106C69.0923 4.6674 69.442 5.24009 70.054 5.4978C71.2198 5.06828 71.6279 3.98018 71.6279 3.69383C71.6279 3.5793 71.2781 2.94934 70.8701 2.72026ZM65.5367 18.011C66.0321 18.011 67.3436 17.467 69.1797 16.0925C69.1797 15.8634 69.034 15.4626 68.9174 15.2621C68.2762 15.8062 67.431 16.2643 67.1105 16.2643C66.8773 16.2643 66.7316 16.0066 66.7316 15.5198C66.7316 14.6035 67.1687 13.0286 68.9757 9.64978C68.8591 9.30617 68.5094 8.93392 68.2762 8.87665C67.8099 8.96255 67.1105 9.30617 66.7316 9.62115C66.819 9.99339 66.7316 10.4229 66.6733 10.6233C65.5367 13.5154 64.808 15.5771 64.808 16.8084C64.808 17.7533 65.0995 18.011 65.5367 18.011Z" fill="black"/>
<path d="M75.0842 3.92291C75.1716 4.35242 73.9476 7.27313 73.1898 8.90529C72.3738 9.07709 71.6743 9.163 71.0331 9.3348C70.9165 9.4207 70.596 9.93612 70.596 10.1938C71.1206 10.1938 72.024 10.1652 72.6361 10.1652C71.208 13.3722 70.4502 15.8634 70.4502 16.9515C70.4502 17.696 70.8 18.1828 71.2371 18.1828C72.1698 18.1828 74.2973 16.8656 76.1334 15.5771C76.1334 15.1762 76.046 14.8899 75.8711 14.6035C74.4722 15.663 73.3647 16.2643 72.8109 16.293C72.6069 16.293 72.5195 16.1211 72.5195 15.663C72.5195 14.8326 73.015 13.2863 74.3847 10.022C75.6088 9.90749 76.8037 9.73568 77.8529 9.47797C78.0569 9.27753 78.3192 8.79075 78.3192 8.61894C77.27 8.70485 75.7545 8.73348 74.9676 8.73348C75.6671 7.21586 76.7163 5.03965 77.5032 3.77974C77.4158 3.55066 77.0952 3.26432 76.8037 3.09251C76.1917 3.23568 75.4922 3.5793 75.0842 3.92291Z" fill="black"/>
<path d="M87.3531 9.59251C87.8194 9.59251 87.9069 10.1366 88.2275 10.3084C88.5189 10.3084 89.131 10.022 89.4807 9.82159C89.5973 9.62115 89.6555 9.39207 89.7138 9.04846C89.5681 8.70485 89.4515 8.53304 89.131 8.18943C88.8978 8.13216 88.3149 8.04626 88.0526 8.04626C85.0507 9.62115 81.874 13.7731 81.874 16.4361C81.874 17.8965 82.6609 18.3833 83.5352 18.3833C85.1673 18.3833 87.12 16.8084 89.0727 14.6322C89.0727 14.2599 88.8978 13.9163 88.7229 13.7731C86.916 15.7775 85.721 16.6366 84.8758 16.6366C84.3512 16.6366 83.8849 16.2071 83.8849 15.6057C83.8849 14.7753 84.3221 13.4581 85.0216 12.37C85.6919 11.3106 86.6828 10.1366 87.3531 9.59251Z" fill="black"/>
<path d="M96.5526 8.44714C95.9405 8.44714 94.9205 8.96255 94.1336 9.50661C90.8402 11.826 89.4121 14.8899 89.4121 17.0088C89.4121 17.7533 89.7619 18.0969 90.0825 18.0969C91.4231 18.0969 93.5215 16.4648 95.4159 14.4317C95.5325 14.2885 95.7074 14.4031 95.6782 14.489C95.2702 15.4912 95.037 16.9802 95.0662 17.467C95.0662 18.0969 95.3868 18.3833 95.6199 18.3833C96.436 18.3833 98.3304 17.1234 99.1173 16.4648C99.0881 16.2071 99.0007 15.8634 98.8841 15.663C98.3595 16.0925 97.66 16.4934 97.3686 16.4934C97.1646 16.4934 97.0189 16.2643 97.0189 15.8634C97.0189 14.0595 98.4761 10.8524 99.4087 8.87665C99.1756 8.61894 98.9133 8.59031 98.6509 8.47577C98.3304 8.64758 98.0098 8.81938 97.7183 8.99119C97.3103 8.73348 96.844 8.44714 96.5526 8.44714ZM95.9114 9.64978C96.1445 9.64978 96.7274 10.1366 96.9023 10.4802C95.0953 14.0308 92.8221 15.978 91.8894 15.978C91.6854 15.978 91.6563 15.7775 91.6563 15.4912C91.6563 13.0573 94.8039 9.64978 95.9114 9.64978Z" fill="black"/>
<path d="M107.847 9.64978C108.109 9.96476 108.401 10.1366 108.634 10.2225C108.926 10.2225 109.45 9.99339 109.771 9.76432C109.946 9.44934 110.033 8.79075 110.033 8.47577C109.683 8.16079 109.1 7.90308 108.722 7.78855C107.905 7.78855 105.953 9.59251 103.563 12.6564C103.505 12.7137 103.242 12.685 103.33 12.5132C103.709 11.3392 103.884 10.337 103.884 9.79295C103.884 9.30617 103.884 9.04846 103.738 8.61894C102.718 8.59031 102.135 8.99119 101.669 9.67841C101.814 9.93612 101.96 10.5088 101.96 11.3106C101.931 12.37 100.911 15.2335 99.7742 17.8392C100.007 18.011 100.357 18.1828 100.736 18.2115C101.086 18.0683 101.61 17.8678 101.843 17.6674C102.193 16.8084 102.834 15.6916 103.009 15.4053C105.341 11.6828 107.235 9.85022 107.847 9.64978Z" fill="black"/>
<path d="M114.585 9.79295C114.964 9.79295 115.547 10.2797 115.751 10.7952C114.644 12.6564 111.613 15.6057 110.768 15.6057C110.534 15.6057 110.418 15.4626 110.418 14.9758C110.418 13.0573 113.624 9.79295 114.585 9.79295ZM115.751 13.0286C115.198 14.7181 114.877 16.3216 114.877 17.4956C114.877 18.2115 115.023 19.0132 115.372 19.2709C115.839 19.2709 116.771 18.7269 117.15 18.3833C117.238 18.1542 117.238 17.8678 117.238 17.5815C117.034 17.5242 116.888 17.1806 116.859 16.6652C116.771 15.1476 117.238 13.4582 117.762 11.9692C119.307 7.64537 121.347 3.06388 122.513 1.20264C122.571 0.830396 122.396 0.314977 122.192 0C121.697 0 120.939 0.257709 120.356 0.572686C120.356 0.773128 120.327 0.973568 120.269 1.14537C119.423 3.60793 117.966 7.15859 116.888 9.67841C116.363 9.07709 115.664 8.53304 115.139 8.53304C113.391 8.53304 108.145 12.9427 108.145 16.6938C108.145 17.5529 108.523 17.9251 109.019 17.9251C110.301 17.9251 112.895 15.7489 115.518 12.8855C115.576 12.8282 115.81 12.8855 115.751 13.0286Z" fill="black"/>
<path d="M132.153 9.64978C132.416 9.96476 132.707 10.1366 132.94 10.2225C133.232 10.2225 133.756 9.99339 134.077 9.76432C134.252 9.44934 134.339 8.79075 134.339 8.47577C133.989 8.16079 133.406 7.90308 133.028 7.78855C132.212 7.78855 130.259 9.59251 127.869 12.6564C127.811 12.7137 127.548 12.685 127.636 12.5132C128.015 11.3392 128.19 10.337 128.19 9.79295C128.19 9.30617 128.19 9.04846 128.044 8.61894C127.024 8.59031 126.441 8.99119 125.975 9.67841C126.12 9.93612 126.266 10.5088 126.266 11.3106C126.237 12.37 125.217 15.2335 124.08 17.8392C124.313 18.011 124.663 18.1828 125.042 18.2115C125.392 18.0683 125.916 17.8678 126.149 17.6674C126.499 16.8084 127.14 15.6916 127.315 15.4053C129.647 11.6828 131.541 9.85022 132.153 9.64978Z" fill="black"/>
<path d="M137.77 8.30396C135.322 10.2511 133.078 14.0308 133.078 16.6079C133.078 17.696 133.661 18.2687 134.768 18.2687C136.197 18.2687 138.907 16.6366 140.16 15.5771C140.16 15.1189 140.131 14.8326 139.898 14.5463C138.849 15.4339 137.1 16.7225 135.934 16.7225C135.293 16.7225 135.235 16.0925 135.235 15.4339C135.235 14.5749 135.468 13.63 135.963 12.5132C139.111 12.5132 141.588 11.0242 141.53 9.39207C141.472 8.36123 140.364 8.07489 139.082 8.07489C138.645 8.07489 138.091 8.21806 137.77 8.30396ZM138.324 9.04846C139.169 9.04846 139.694 9.27753 139.694 9.85022C139.694 11.0242 137.974 11.5396 136.401 11.5396C136.983 10.4802 137.741 9.59251 138.324 9.04846Z" fill="black"/>
<path d="M146.756 9.76432C147.281 9.76432 147.835 10.3084 148.155 10.6806C147.164 12.5132 144.133 15.4626 143.521 15.4626C143.288 15.4626 143.23 15.348 143.23 15.1189C143.23 13.2577 145.969 9.76432 146.756 9.76432ZM147.368 13.7731C145.328 18.1542 144.017 22.3921 143.317 25.2841C143.463 25.5705 143.871 25.8855 144.221 26C144.541 26 145.357 25.7137 145.707 25.3128C145.445 24.5396 145.853 22.2775 146.202 21.1035C147.485 16.6079 149.787 11.5683 151.332 9.10573C151.186 8.93392 150.866 8.59031 150.516 8.59031C150.137 8.81938 149.758 9.163 149.35 9.59251C148.651 9.04846 147.776 8.59031 147.31 8.59031C145.62 8.59031 141.073 13.0573 141.073 16.5507C141.073 17.2952 141.394 17.5815 141.831 17.5815C143.055 17.5815 145.037 15.8348 147.106 13.7159C147.193 13.6013 147.427 13.6872 147.368 13.7731Z" fill="black"/>
<path d="M153.524 9.62115C152.387 11.7974 151.076 14.9185 151.076 16.6366C151.076 17.3524 151.426 17.7247 151.921 17.7247C152.941 17.7247 155.01 16.2071 157.896 12.8855C157.954 12.8568 158.216 12.8282 158.158 13C157.692 14.2599 157.313 15.6916 157.313 16.6652C157.313 17.467 157.663 17.7533 158.012 17.7533C158.887 17.7533 160.81 16.522 161.714 15.663C161.714 15.3194 161.655 15.0903 161.51 14.8326C160.635 15.4912 159.965 15.8634 159.528 15.8634C159.353 15.8634 159.266 15.663 159.266 15.348C159.236 14.4604 160.082 11.6256 161.277 9.4207C161.189 9.2489 160.839 8.96255 160.635 8.87665C160.286 8.87665 159.557 9.163 159.062 9.50661C156.439 13.5441 154.165 15.5198 153.524 15.5198C153.32 15.5198 153.262 15.2335 153.262 14.9758C153.262 13.859 153.816 12.2555 155.331 9.67841C155.215 9.47797 155.01 9.27753 154.836 9.13436C154.398 9.2489 154.02 9.3348 153.524 9.62115Z" fill="black"/>
<path d="M168.777 2.72026C167.699 2.77753 166.97 4.20925 167 4.38106C167 4.6674 167.349 5.24009 167.961 5.4978C169.127 5.06828 169.535 3.98018 169.535 3.69383C169.535 3.5793 169.185 2.94934 168.777 2.72026ZM163.444 18.011C163.939 18.011 165.251 17.467 167.087 16.0925C167.087 15.8634 166.941 15.4626 166.825 15.2621C166.184 15.8062 165.338 16.2643 165.018 16.2643C164.785 16.2643 164.639 16.0066 164.639 15.5198C164.639 14.6035 165.076 13.0286 166.883 9.64978C166.766 9.30617 166.417 8.93392 166.184 8.87665C165.717 8.96255 165.018 9.30617 164.639 9.62115C164.726 9.99339 164.639 10.4229 164.581 10.6233C163.444 13.5154 162.715 15.5771 162.715 16.8084C162.715 17.7533 163.007 18.011 163.444 18.011Z" fill="black"/>
<path d="M175.642 9.64978C175.905 9.96476 176.196 10.1366 176.429 10.2225C176.721 10.2225 177.245 9.99339 177.566 9.76432C177.741 9.44934 177.828 8.79075 177.828 8.47577C177.478 8.16079 176.896 7.90308 176.517 7.78855C175.701 7.78855 173.748 9.59251 171.358 12.6564C171.3 12.7137 171.037 12.685 171.125 12.5132C171.504 11.3392 171.679 10.337 171.679 9.79295C171.679 9.30617 171.679 9.04846 171.533 8.61894C170.513 8.59031 169.93 8.99119 169.464 9.67841C169.609 9.93612 169.755 10.5088 169.755 11.3106C169.726 12.37 168.706 15.2335 167.569 17.8392C167.802 18.011 168.152 18.1828 168.531 18.2115C168.881 18.0683 169.405 17.8678 169.639 17.6674C169.988 16.8084 170.629 15.6916 170.804 15.4053C173.136 11.6828 175.03 9.85022 175.642 9.64978Z" fill="black"/>
<path d="M181.259 8.30396C178.811 10.2511 176.567 14.0308 176.567 16.6079C176.567 17.696 177.15 18.2687 178.258 18.2687C179.686 18.2687 182.396 16.6366 183.649 15.5771C183.649 15.1189 183.62 14.8326 183.387 14.5463C182.338 15.4339 180.589 16.7225 179.423 16.7225C178.782 16.7225 178.724 16.0925 178.724 15.4339C178.724 14.5749 178.957 13.63 179.452 12.5132C182.6 12.5132 185.077 11.0242 185.019 9.39207C184.961 8.36123 183.853 8.07489 182.571 8.07489C182.134 8.07489 181.58 8.21806 181.259 8.30396ZM181.813 9.04846C182.658 9.04846 183.183 9.27753 183.183 9.85022C183.183 11.0242 181.463 11.5396 179.89 11.5396C180.473 10.4802 181.23 9.59251 181.813 9.04846Z" fill="black"/>
<path d="M191.061 9.79295C191.44 9.79295 192.023 10.2797 192.227 10.7952C191.12 12.6564 188.089 15.6057 187.243 15.6057C187.01 15.6057 186.894 15.4626 186.894 14.9758C186.894 13.0573 190.1 9.79295 191.061 9.79295ZM192.227 13.0286C191.673 14.7181 191.353 16.3216 191.353 17.4956C191.353 18.2115 191.499 19.0132 191.848 19.2709C192.315 19.2709 193.247 18.7269 193.626 18.3833C193.713 18.1542 193.713 17.8678 193.713 17.5815C193.509 17.5242 193.364 17.1806 193.335 16.6652C193.247 15.1476 193.713 13.4582 194.238 11.9692C195.783 7.64537 197.823 3.06388 198.989 1.20264C199.047 0.830396 198.872 0.314977 198.668 0C198.173 0 197.415 0.257709 196.832 0.572686C196.832 0.773128 196.803 0.973568 196.745 1.14537C195.899 3.60793 194.442 7.15859 193.364 9.67841C192.839 9.07709 192.14 8.53304 191.615 8.53304C189.866 8.53304 184.62 12.9427 184.62 16.6938C184.62 17.5529 184.999 17.9251 185.495 17.9251C186.777 17.9251 189.371 15.7489 191.994 12.8855C192.052 12.8282 192.285 12.8855 192.227 13.0286Z" fill="black"/>
</svg>
