<svg width="992" height="992" viewBox="0 0 992 992" fill="none" xmlns="http://www.w3.org/2000/svg">
<path d="M793.937 100.329L789.617 86.3102L778.536 100.825L793.937 100.329Z" fill="#030303"/>
<path fill-rule="evenodd" clip-rule="evenodd" d="M790.144 83.3562C791.25 83.5535 792.153 84.3523 792.484 85.426L796.805 99.445C797.08 100.339 796.923 101.31 796.38 102.071C795.836 102.833 794.969 103.297 794.034 103.327L778.633 103.823C777.475 103.86 776.399 103.228 775.869 102.198C775.339 101.168 775.449 99.925 776.152 99.0043L787.232 84.4892C787.914 83.5962 789.038 83.1589 790.144 83.3562ZM789.617 86.3096L778.536 100.825L793.938 100.329L789.617 86.3096Z" fill="black"/>
<path d="M944.299 288L941.465 302.393L958.099 294.858L944.299 288Z" fill="#030303"/>
<path fill-rule="evenodd" clip-rule="evenodd" d="M939.602 304.744C938.722 304.047 938.304 302.916 938.522 301.813L941.356 287.42C941.537 286.502 942.135 285.721 942.975 285.308C943.814 284.895 944.797 284.897 945.635 285.313L959.434 292.171C960.471 292.687 961.119 293.754 961.099 294.912C961.078 296.07 960.392 297.113 959.337 297.591L942.703 305.126C941.68 305.589 940.483 305.442 939.602 304.744ZM941.465 302.393L958.099 294.858L944.3 288L941.465 302.393Z" fill="black"/>
<path fill-rule="evenodd" clip-rule="evenodd" d="M496 2C493.967 2 491.937 2.01228 489.91 2.03677L489.886 0.0369126C491.921 0.0123276 493.959 0 496 0C498.071 0 500.139 0.0126959 502.205 0.0380142L502.18 2.03786C500.123 2.01265 498.063 2 496 2ZM477.784 2.3296C473.737 2.47629 469.703 2.67166 465.681 2.91515L465.56 0.918806C469.598 0.674343 473.649 0.478188 477.712 0.33091L477.784 2.3296ZM526.853 2.94775C522.756 2.69531 518.646 2.49281 514.523 2.34083L514.596 0.342184C518.736 0.49477 522.863 0.698088 526.976 0.951533L526.853 2.94775ZM453.579 3.79587C449.546 4.13885 445.527 4.53029 441.523 4.96959L441.304 2.98151C445.325 2.54044 449.361 2.14743 453.41 1.80306L453.579 3.79587ZM551.458 5.07811C547.376 4.62214 543.279 4.2159 539.168 3.86002L539.341 1.86747C543.468 2.22479 547.582 2.63266 551.68 3.09047L551.458 5.07811ZM429.476 6.44079C425.466 6.98052 421.471 7.56836 417.493 8.2037L417.177 6.22872C421.172 5.5908 425.183 5.00058 429.209 4.45866L429.476 6.44079ZM575.921 8.43158C571.868 7.77219 567.797 7.16212 563.711 6.60203L563.983 4.62056C568.086 5.18292 572.172 5.79546 576.242 6.45753L575.921 8.43158ZM405.532 10.2651C401.554 11.0013 397.593 11.785 393.65 12.6158L393.238 10.6588C397.197 9.82461 401.174 9.03765 405.168 8.29853L405.532 10.2651ZM600.186 13.0063C596.169 12.1439 592.133 11.3303 588.08 10.5662L588.451 8.60087C592.52 9.36805 596.572 10.1849 600.606 11.0509L600.186 13.0063ZM381.805 15.2646C377.87 16.196 373.952 17.1744 370.054 18.1993L369.545 16.265C373.46 15.2359 377.393 14.2535 381.345 13.3184L381.805 15.2646ZM624.192 18.7953C620.223 17.7317 616.234 16.7164 612.226 15.7499L612.695 13.8056C616.719 14.7761 620.724 15.7955 624.71 16.8634L624.192 18.7953ZM358.355 21.43C354.471 22.5547 350.606 23.7257 346.762 24.9426L346.158 23.0358C350.018 21.814 353.899 20.6382 357.799 19.5089L358.355 21.43ZM647.873 25.7846C643.962 24.5223 640.029 23.3074 636.076 22.1406L636.642 20.2224C640.611 21.394 644.56 22.6138 648.487 23.8813L647.873 25.7846ZM335.238 28.7475C331.415 30.0629 327.612 31.4238 323.831 32.8298L323.134 30.9552C326.93 29.5435 330.748 28.177 334.588 26.8563L335.238 28.7475ZM671.175 33.9589C667.331 32.5009 663.465 31.0894 659.576 29.7252L660.238 27.838C664.143 29.2077 668.025 30.625 671.885 32.089L671.175 33.9589ZM312.512 37.1992C308.758 38.7019 305.026 40.2494 301.319 41.8409L300.53 40.0031C304.253 38.4051 307.999 36.8513 311.768 35.3425L312.512 37.1992ZM694.034 43.2945C690.268 41.6448 686.477 40.0407 682.663 38.4829L683.419 36.6314C687.249 38.1955 691.055 39.8061 694.836 41.4625L694.034 43.2945ZM290.23 46.7635C286.555 48.4496 282.904 50.1795 279.278 51.9526L278.399 50.1559C282.04 48.3756 285.706 46.6387 289.396 44.9457L290.23 46.7635ZM716.397 53.7684C712.717 51.9312 709.012 50.1385 705.281 48.3912L706.13 46.58C709.876 48.3345 713.596 50.1344 717.29 51.979L716.397 53.7684ZM268.447 57.4151C264.859 59.2803 261.298 61.1881 257.762 63.138L256.796 61.3867C260.346 59.4289 263.922 57.5133 267.524 55.6406L268.447 57.4151ZM738.204 65.3497C734.621 63.3302 731.011 61.3542 727.373 59.4223L728.311 57.656C731.963 59.5957 735.589 61.5797 739.186 63.6074L738.204 65.3497ZM247.214 69.1262C243.723 71.1654 240.259 73.2462 236.823 75.3679L235.772 73.6662C239.222 71.5359 242.7 69.4466 246.206 67.3992L247.214 69.1262ZM759.407 78.009C755.928 75.8125 752.421 73.6582 748.885 71.5469L749.91 69.8297C753.461 71.9496 756.982 74.1126 760.474 76.3179L759.407 78.009ZM226.582 81.866C223.195 84.074 219.837 86.3224 216.508 88.6105L215.375 86.9623C218.718 84.6649 222.089 82.4075 225.49 80.1906L226.582 81.866ZM779.949 91.7105C776.585 89.343 773.189 87.0164 769.763 84.7315L770.873 83.0676C774.313 85.3618 777.722 87.6978 781.1 90.0749L779.949 91.7105ZM206.599 95.6019C203.324 97.9729 200.08 100.383 196.867 102.832L195.654 101.241C198.881 98.7824 202.138 96.3625 205.426 93.9819L206.599 95.6019ZM794.894 102.65C793.257 101.404 791.612 100.168 789.959 98.9416L791.15 97.3352C792.81 98.5661 794.462 99.8071 796.106 101.058L794.894 102.65ZM187.312 110.299C184.157 112.827 181.034 115.393 177.943 117.996L176.655 116.466C179.758 113.853 182.894 111.276 186.061 108.738L187.312 110.299ZM168.765 125.92C165.738 128.599 162.743 131.315 159.783 134.066L158.422 132.601C161.394 129.839 164.4 127.112 167.439 124.423L168.765 125.92ZM151.002 142.429C148.11 145.252 145.251 148.11 142.428 151.002L140.997 149.606C143.831 146.701 146.701 143.832 149.605 140.997L151.002 142.429ZM134.066 159.783C131.314 162.744 128.599 165.738 125.92 168.765L124.423 167.44C127.112 164.4 129.838 161.394 132.601 158.422L134.066 159.783ZM117.996 177.944C115.393 181.034 112.827 184.157 110.299 187.312L108.738 186.061C111.276 182.894 113.853 179.758 116.466 176.655L117.996 177.944ZM102.832 196.867C100.383 200.08 97.9727 203.325 95.6017 206.599L93.9818 205.426C96.3624 202.139 98.7822 198.881 101.241 195.655L102.832 196.867ZM88.6103 216.508C86.3222 219.837 84.0739 223.195 81.8659 226.582L80.1905 225.49C82.4073 222.09 84.6648 218.718 86.9621 215.376L88.6103 216.508ZM75.3678 236.823C73.2461 240.259 71.1653 243.723 69.1261 247.215L67.3991 246.206C69.4465 242.7 71.5358 239.222 73.6661 235.772L75.3678 236.823ZM63.1379 257.763C61.188 261.298 59.2801 264.86 57.415 268.447L55.6405 267.525C57.5132 263.923 59.4288 260.346 61.3866 256.797L63.1379 257.763ZM51.9524 279.278C50.1794 282.904 48.4495 286.555 46.7634 290.23L44.9455 289.396C46.6385 285.706 48.3755 282.04 50.1557 278.4L51.9524 279.278ZM948.956 293.591C949.744 295.353 950.522 297.119 951.29 298.891L949.455 299.686C948.69 297.922 947.915 296.162 947.13 294.409L948.956 293.591ZM41.8408 301.319C40.2493 305.027 38.7018 308.758 37.1991 312.512L35.3424 311.769C36.8512 307.999 38.4049 304.253 40.0029 300.53L41.8408 301.319ZM955.771 309.57C957.222 313.143 958.632 316.738 960.001 320.352L958.13 321.06C956.767 317.461 955.363 313.881 953.918 310.322L955.771 309.57ZM32.8296 323.832C31.4237 327.612 30.0627 331.415 28.7474 335.239L26.8561 334.588C28.1769 330.749 29.5434 326.931 30.9551 323.134L32.8296 323.832ZM963.975 331.23C965.256 334.867 966.495 338.524 967.693 342.2L965.791 342.819C964.598 339.159 963.364 335.517 962.089 331.894L963.975 331.23ZM24.9425 346.762C23.7256 350.606 22.5545 354.471 21.4299 358.356L19.5088 357.799C20.638 353.899 21.8139 350.018 23.0357 346.158L24.9425 346.762ZM971.151 353.254C972.259 356.946 973.325 360.657 974.348 364.385L972.42 364.914C971.4 361.201 970.339 357.506 969.236 353.828L971.151 353.254ZM18.1992 370.054C17.1743 373.953 16.1959 377.87 15.2645 381.806L13.3183 381.345C14.2534 377.393 15.2358 373.46 16.2649 369.546L18.1992 370.054ZM977.283 375.588C978.215 379.328 979.106 383.085 979.953 386.858L978.002 387.296C977.158 383.538 976.271 379.797 975.342 376.072L977.283 375.588ZM12.6158 393.65C11.7849 397.594 11.0012 401.555 10.2651 405.532L8.29846 405.168C9.03757 401.174 9.82452 397.198 10.6587 393.238L12.6158 393.65ZM982.358 398.188C983.113 401.967 983.826 405.761 984.496 409.571L982.526 409.917C981.859 406.123 981.149 402.344 980.396 398.58L982.358 398.188ZM8.20363 417.493C7.56829 421.472 6.98045 425.466 6.44073 429.476L4.4586 429.209C5.00051 425.183 5.59073 421.173 6.22865 417.178L8.20363 417.493ZM986.366 421C986.944 424.809 987.479 428.632 987.969 432.469L985.985 432.723C985.497 428.901 984.964 425.093 984.389 421.299L986.366 421ZM4.96954 441.523C4.53024 445.528 4.13881 449.547 3.79583 453.58L1.80302 453.41C2.14738 449.361 2.54039 445.326 2.98146 441.305L4.96954 441.523ZM989.304 443.974C989.703 447.806 990.059 451.651 990.371 455.508L988.377 455.669C988.067 451.827 987.713 447.998 987.315 444.182L989.304 443.974ZM2.91512 465.682C2.67164 469.703 2.47627 473.738 2.32958 477.785L0.330891 477.712C0.478165 473.649 0.674316 469.598 0.918776 465.561L2.91512 465.682ZM991.17 467.06C991.391 470.905 991.568 474.761 991.701 478.629L989.703 478.698C989.57 474.845 989.393 471.004 989.173 467.175L991.17 467.06ZM2.03676 489.911C2.01228 491.937 2 493.967 2 496C2 498.058 2.01259 500.114 2.03769 502.166L0.0378388 502.19C0.0126373 500.13 0 498.066 0 496C0 493.959 0.0123255 491.921 0.0369062 489.886L2.03676 489.911ZM991.967 490.208C991.989 492.136 992 494.067 992 496C992 498.041 991.988 500.079 991.963 502.114L989.963 502.09C989.988 500.063 990 498.033 990 496C990 494.074 989.989 492.151 989.967 490.231L991.967 490.208ZM991.669 514.288C991.522 518.351 991.326 522.402 991.081 526.44L989.085 526.319C989.328 522.297 989.524 518.263 989.67 514.216L991.669 514.288ZM2.33975 514.494C2.49133 518.612 2.69332 522.718 2.94512 526.81L0.948896 526.933C0.696081 522.824 0.493285 518.702 0.341107 514.567L2.33975 514.494ZM990.197 538.59C989.853 542.639 989.46 546.675 989.018 550.696L987.03 550.477C987.47 546.473 987.861 542.454 988.204 538.421L990.197 538.59ZM3.85474 539.107C4.20958 543.212 4.61461 547.303 5.06923 551.378L3.08155 551.6C2.6251 547.508 2.21844 543.401 1.86217 539.28L3.85474 539.107ZM987.541 562.791C986.999 566.817 986.409 570.828 985.771 574.823L983.796 574.507C984.432 570.529 985.019 566.534 985.559 562.524L987.541 562.791ZM6.58882 563.615C7.14739 567.696 7.75581 571.761 8.41343 575.81L6.43931 576.13C5.77901 572.065 5.16813 567.984 4.6073 563.886L6.58882 563.615ZM983.701 586.832C982.962 590.826 982.175 594.803 981.341 598.762L979.384 598.35C980.215 594.407 980.999 590.446 981.735 586.468L983.701 586.832ZM10.5426 587.955C11.3045 592.002 12.1157 596.031 12.9756 600.043L11.02 600.462C10.1566 596.434 9.34211 592.388 8.57715 588.325L10.5426 587.955ZM978.682 610.655C977.746 614.607 976.764 618.54 975.735 622.455L973.801 621.946C974.826 618.048 975.804 614.13 976.735 610.195L978.682 610.655ZM15.7113 612.066C16.6751 616.069 17.6877 620.052 18.7483 624.016L16.8163 624.533C15.7513 620.553 14.7346 616.553 13.7669 612.534L15.7113 612.066ZM972.491 634.201C971.362 638.101 970.186 641.982 968.964 645.842L967.057 645.239C968.274 641.394 969.445 637.529 970.57 633.645L972.491 634.201ZM22.0849 635.887C23.2485 639.835 24.46 643.763 25.719 647.669L23.8154 648.283C22.5513 644.36 21.3348 640.417 20.1664 636.452L22.0849 635.887ZM965.144 657.412C963.823 661.252 962.456 665.07 961.045 668.866L959.17 668.169C960.576 664.388 961.937 660.585 963.253 656.762L965.144 657.412ZM29.6483 659.357C31.0088 663.241 32.4164 667.103 33.8704 670.942L32.0001 671.65C30.5401 667.795 29.1268 663.918 27.7608 660.018L29.6483 659.357ZM956.658 680.232C955.149 684.001 953.595 687.747 951.997 691.47L950.159 690.682C951.751 686.974 953.298 683.242 954.801 679.488L956.658 680.232ZM38.3824 682.417C39.1588 684.321 39.9468 686.219 40.7462 688.111L38.9039 688.889C38.1012 686.989 37.31 685.084 36.5305 683.172L38.3824 682.417ZM947.054 702.604C945.361 706.294 943.624 709.96 941.844 713.601L940.047 712.722C941.82 709.096 943.55 705.445 945.237 701.77L947.054 702.604ZM936.359 724.476C934.487 728.078 932.571 731.654 930.613 735.204L928.862 734.238C930.812 730.702 932.72 727.141 934.585 723.553L936.359 724.476ZM924.601 745.794C922.553 749.3 920.464 752.778 918.334 756.228L916.632 755.177C918.754 751.741 920.835 748.277 922.874 744.786L924.601 745.794ZM911.809 766.51C909.593 769.911 907.335 773.282 905.038 776.625L903.39 775.492C905.678 772.163 907.926 768.805 910.134 765.418L911.809 766.51ZM898.018 786.574C895.638 789.862 893.218 793.119 890.759 796.346L889.168 795.133C891.617 791.92 894.027 788.676 896.398 785.401L898.018 786.574ZM883.262 805.939C880.724 809.106 878.147 812.242 875.534 815.345L874.004 814.057C876.607 810.966 879.173 807.843 881.701 804.688L883.262 805.939ZM867.577 824.561C864.888 827.6 862.161 830.606 859.399 833.578L857.934 832.217C860.685 829.257 863.401 826.262 866.08 823.235L867.577 824.561ZM851.003 842.395C848.168 845.299 845.299 848.169 842.394 851.003L840.998 849.572C843.89 846.749 846.748 843.89 849.571 840.998L851.003 842.395ZM833.578 859.399C830.606 862.162 827.6 864.888 824.56 867.577L823.235 866.08C826.262 863.401 829.256 860.685 832.217 857.934L833.578 859.399ZM178.812 877.34C177.317 876.096 175.831 874.843 174.351 873.581L175.649 872.059C177.122 873.316 178.603 874.564 180.092 875.803L178.812 877.34ZM815.345 875.534C812.242 878.147 809.106 880.724 805.939 883.262L804.688 881.701C807.843 879.173 810.966 876.607 814.056 874.004L815.345 875.534ZM197.086 891.846C193.984 889.5 190.909 887.117 187.864 884.7L189.108 883.134C192.141 885.541 195.203 887.914 198.293 890.251L197.086 891.846ZM796.345 890.759C793.119 893.218 789.862 895.638 786.574 898.018L785.401 896.398C788.675 894.027 791.92 891.617 795.133 889.168L796.345 890.759ZM216.021 905.481C212.811 903.282 209.628 901.046 206.474 898.774L207.642 897.151C210.784 899.414 213.954 901.641 217.151 903.831L216.021 905.481ZM776.624 905.038C773.282 907.335 769.91 909.593 766.51 911.81L765.418 910.134C768.805 907.926 772.163 905.678 775.492 903.39L776.624 905.038ZM235.574 918.211C232.264 916.166 228.98 914.082 225.723 911.961L226.814 910.285C230.058 912.397 233.329 914.473 236.625 916.51L235.574 918.211ZM756.228 918.334C752.778 920.464 749.3 922.553 745.794 924.601L744.786 922.874C748.277 920.835 751.741 918.754 755.177 916.632L756.228 918.334ZM255.703 930.009C252.3 928.121 248.922 926.194 245.569 924.228L246.58 922.503C249.92 924.46 253.285 926.379 256.674 928.26L255.703 930.009ZM735.203 930.613C731.654 932.571 728.078 934.487 724.475 936.359L723.553 934.585C727.14 932.72 730.702 930.812 734.237 928.862L735.203 930.613ZM276.366 940.844C272.878 939.119 269.412 937.353 265.971 935.548L266.9 933.777C270.327 935.575 273.779 937.333 277.253 939.052L276.366 940.844ZM713.6 941.844C709.96 943.625 706.294 945.361 702.604 947.054L701.77 945.237C705.445 943.551 709.096 941.821 712.722 940.048L713.6 941.844ZM297.519 950.693C293.952 949.133 290.407 947.534 286.884 945.893L287.728 944.08C291.237 945.714 294.767 947.307 298.32 948.86L297.519 950.693ZM691.47 951.997C687.747 953.595 684.001 955.149 680.231 956.658L679.488 954.801C683.242 953.298 686.973 951.751 690.681 950.159L691.47 951.997ZM319.113 959.53C315.476 958.141 311.859 956.71 308.264 955.239L309.021 953.388C312.602 954.853 316.204 956.278 319.827 957.661L319.113 959.53ZM668.866 961.045C665.069 962.457 661.251 963.823 657.412 965.144L656.761 963.253C660.585 961.937 664.388 960.576 668.168 959.17L668.866 961.045ZM341.103 967.334C337.403 966.119 333.723 964.862 330.062 963.562L330.731 961.677C334.377 962.971 338.042 964.224 341.727 965.434L341.103 967.334ZM645.842 968.964C641.982 970.186 638.101 971.362 634.201 972.491L633.644 970.57C637.529 969.445 641.394 968.274 645.238 967.058L645.842 968.964ZM363.438 974.088C359.684 973.049 355.948 971.967 352.231 970.843L352.81 968.929C356.512 970.048 360.233 971.126 363.971 972.16L363.438 974.088ZM622.455 975.735C618.54 976.764 614.607 977.747 610.655 978.682L610.194 976.736C614.13 975.804 618.047 974.826 621.946 973.801L622.455 975.735ZM386.065 979.774C382.266 978.915 378.484 978.011 374.718 977.065L375.206 975.125C378.956 976.068 382.723 976.967 386.507 977.824L386.065 979.774ZM598.762 981.341C594.802 982.175 590.826 982.962 586.832 983.702L586.468 981.735C590.445 980.999 594.406 980.215 598.35 979.384L598.762 981.341ZM408.937 984.384C405.1 983.705 401.279 982.981 397.474 982.214L397.869 980.254C401.659 981.018 405.465 981.738 409.285 982.415L408.937 984.384ZM574.822 985.771C570.827 986.409 566.817 987 562.791 987.541L562.524 985.559C566.534 985.02 570.528 984.432 574.507 983.796L574.822 985.771ZM432 987.909C428.135 987.411 424.284 986.869 420.448 986.282L420.75 984.305C424.571 984.889 428.406 985.43 432.256 985.925L432 987.909ZM550.695 989.019C546.674 989.46 542.639 989.853 538.59 990.197L538.42 988.204C542.453 987.861 546.472 987.47 550.477 987.03L550.695 989.019ZM455.204 990.346C451.319 990.03 447.447 989.669 443.588 989.264L443.797 987.275C447.64 987.678 451.497 988.038 455.366 988.353L455.204 990.346ZM526.439 991.081C522.402 991.326 518.351 991.522 514.288 991.669L514.215 989.67C518.262 989.524 522.297 989.328 526.318 989.085L526.439 991.081ZM478.496 991.697C474.6 991.562 470.715 991.382 466.842 991.157L466.958 989.161C470.815 989.384 474.685 989.563 478.565 989.698L478.496 991.697ZM502.114 991.963C500.079 991.988 498.041 992 496 992C494.05 992 492.104 991.989 490.159 991.966L490.182 989.966C492.119 989.989 494.058 990 496 990C498.033 990 500.063 989.988 502.089 989.963L502.114 991.963Z" fill="black"/>
<path fill-rule="evenodd" clip-rule="evenodd" d="M877 287C821.772 287 777 242.228 777 187C777 131.772 821.772 87 877 87C932.228 87 977 131.772 977 187C977 242.228 932.228 287 877 287ZM853.306 160.519C856.547 167.436 859.206 174.942 865.042 192.817L865.089 192.964C870.981 211.019 873.633 218.561 877.181 226.394C879.617 231.775 882.033 236.017 884.675 239.261C888.567 244.042 893.194 247 898.919 247C906.533 247 912.944 243.675 917.392 237.725C920.894 233.039 923.044 226.986 924.219 219.647C926.011 208.461 925.558 194.269 923.45 177C921.067 157.475 917.181 141.681 911.675 129.542C909.394 124.511 903.467 122.283 898.439 124.567C893.411 126.847 891.183 132.775 893.464 137.806C898.025 147.858 901.444 161.758 903.6 179.425C905.5 194.986 905.9 207.575 904.472 216.489C903.764 220.908 902.65 224.047 901.375 225.753C900.997 226.258 900.675 226.575 900.286 226.764C900.253 226.725 900.219 226.683 900.183 226.639C898.819 224.961 897.186 222.094 895.397 218.147C892.272 211.247 889.736 204.036 884.097 186.761L884.05 186.614C877.928 167.856 875.142 159.994 871.414 152.036C868.811 146.478 866.208 142.194 863.278 139.028C858.797 134.186 853.2 131.667 846.892 133.111C840.211 134.642 835.492 139.544 832.656 146.597C830.45 152.083 829.231 159.178 828.822 168.047C828.061 184.544 830.103 207.972 834.906 238.553C835.761 244.008 840.878 247.736 846.333 246.881C851.789 246.025 855.517 240.906 854.661 235.45C850.05 206.086 848.114 183.853 848.8 168.969C849.069 163.15 849.736 158.636 850.692 155.533C851.5 156.875 852.381 158.544 853.306 160.522V160.519Z" fill="#1DB6DA"/>
<circle cx="102" cy="788" r="100" fill="#4FCF9A"/>
<path d="M138.359 775.055C139.711 776.024 140.963 776.92 142.837 778.254C140.717 779.04 139.154 779.588 137.619 780.191C134.164 781.544 130.618 782.713 127.292 784.331C122.723 786.552 119.643 790.143 118.482 795.261C117.377 800.141 114.827 804.281 111.034 807.488C109.298 808.96 108.951 810.486 109.38 812.469C110.111 815.878 111.126 819.259 111.519 822.704C112.03 827.118 112.076 831.578 112.25 836.028C112.305 837.427 111.455 837.993 110.047 837.957C107.242 837.893 104.427 837.92 101.622 837.938C100.406 837.938 99.6476 837.573 100.059 836.193C101.905 829.878 99.8761 824.048 97.8016 818.235C96.577 814.818 96.5314 814.79 92.9125 814.973C85.9579 815.32 79.5518 813.547 73.5294 810.166C72.844 809.782 72.1038 809.471 70.9614 808.914C70.7238 811.171 70.4862 813.026 70.3491 814.872C69.9013 820.876 69.7003 826.862 71.6925 832.684C71.7199 832.757 71.7291 832.83 71.7474 832.903C72.7435 837.618 72.4602 837.966 67.7081 837.975C65.661 837.975 63.5957 838.075 61.5669 837.874C60.982 837.82 59.9676 836.805 60.0316 836.357C60.9272 829.796 59.3645 823.499 57.884 817.239C56.5224 811.5 55.837 805.752 56.2573 799.867C56.2848 799.501 56.2117 799.136 56.1842 798.715C54.7952 799.638 53.8996 801.713 53.8356 804.911C53.7899 807.406 54.0732 809.901 54.2194 812.396C54.3382 814.434 54.5576 816.481 54.585 818.519C54.6307 821.672 53.1411 823.965 49.97 825.82C49.5222 823.088 49.0561 820.621 48.7637 818.126C48.6906 817.449 48.9647 816.399 49.4491 816.051C51.8434 814.333 51.4321 811.829 51.5692 809.453C52.0627 800.644 53.004 791.907 56.2391 783.6C58.0028 779.076 60.5617 775.083 64.473 772.094C67.4339 769.837 70.87 769.234 74.5164 768.96C79.3598 768.594 82.4853 769.38 84.7516 774.79C88.3249 783.326 95.7546 788.224 104.738 790.527C105.076 790.618 105.451 790.573 105.99 790.143C104.848 789.549 103.723 788.937 102.572 788.361C96.6045 785.364 91.6056 781.315 88.6904 775.138C85.0349 767.388 86.7347 759.538 92.9307 755.188C98.3774 751.359 105.588 751.514 110.925 755.791C112.314 756.906 113.301 756.888 114.754 756.111C119.552 753.552 124.459 753.653 129.458 755.645C130.253 755.965 131.532 755.892 132.236 755.453C141.649 749.586 143.184 734.882 135.234 726.776C133.872 725.387 132.218 724.272 130.628 723.139C129.668 722.453 128.425 721.932 129.668 720.58C130.609 719.556 130.6 716.961 133.205 718.451C140.022 722.325 145.158 727.717 148.22 734.964C154.004 748.663 150.193 764.756 139.209 773.895C138.889 774.16 138.697 774.589 138.368 775.046L138.359 775.055ZM119.862 761.411L119.817 762.435C120.657 763.093 121.416 764.135 122.348 764.336C123.792 764.646 124.797 763.669 124.889 762.142C124.989 760.561 123.975 759.602 122.549 759.766C121.599 759.876 120.749 760.836 119.853 761.411H119.862Z" fill="white"/>
<path d="M122.001 820.693C119.762 818.811 117.715 817.157 115.741 815.43C111.61 811.82 111.638 811.811 115.311 807.826C116.134 806.94 116.838 805.944 117.569 804.975C118.254 804.07 118.894 803.138 119.588 802.169C119.753 802.197 120.082 802.151 120.164 802.27C123.637 807.022 127.356 811.628 130.454 816.618C132.638 820.136 131.971 824.075 129.239 827.209C127.219 829.521 124.788 831.523 122.357 833.414C121.727 833.899 119.917 833.881 119.433 833.36C117.925 831.733 116.545 829.878 115.64 827.876C115.275 827.072 115.951 825.345 116.701 824.587C118.117 823.17 119.936 822.165 122.001 820.693Z" fill="white"/>
<path d="M73.6298 813.493C77.0019 814.836 80.1548 816.042 83.2619 817.395C83.7097 817.587 84.1575 818.455 84.1301 818.985C83.8559 824.386 85.1079 829.485 86.8351 834.548C87.9135 837.728 87.5662 837.993 84.1483 837.975C81.7906 837.975 79.4419 837.929 77.0842 837.939C75.8687 837.939 75.2747 837.5 75.3296 836.184C75.6129 829.111 75.3935 822.074 73.5384 815.174C73.4196 814.726 73.5841 814.205 73.6298 813.493Z" fill="white"/>
</svg>
